<?xml version="1.0" encoding="utf-8"?>
<!-- Generator: Adobe Illustrator 20.1.0, SVG Export Plug-In . SVG Version: 6.00 Build 0)  -->
<svg version="1.1" id="Layer_1" xmlns="http://www.w3.org/2000/svg" xmlns:xlink="http://www.w3.org/1999/xlink" x="0px" y="0px"
	 viewBox="0 0 753.9 176.1" style="enable-background:new 0 0 753.9 176.1;" xml:space="preserve">
<style type="text/css">
	.st0{fill:#FFFFFF;}
	.st1{opacity:0.75;fill:#4E9DE8;enable-background:new    ;}
	.st2{fill:#5580FF;}
	.st3{opacity:0.75;fill:#28E5D7;enable-background:new    ;}
	.st4{opacity:0.75;fill:url(#SVGID_1_);enable-background:new    ;}
	.st5{opacity:0.49;fill:url(#SVGID_2_);enable-background:new    ;}
</style>
<title>Asset 1</title>
<g id="Layer_2">
	<g id="Layer_1-2">
		<path class="st0" d="M305.8,74.9c-11.8-31.6-45.1-53.4-83-46.9c-11.1,2.1-21.8,6.1-31.4,12.1c-1.8-3.5-3.9-6.9-6.2-10.1
			C158.4-7.1,89.9-16.5,62.4,40.8c-3.5,7.2-6,14.9-7.3,22.7l0,0c-3.3-0.3-6.6-0.2-9.9,0.2c-37,5.1-51.3,40.7-42.7,68.7
			c1.3,2.2,2.8,4.3,4.2,6.2c-1.5-2-2.9-4.1-4.3-6.3c14,39.8,41.6,44.2,143.3,43.2c35-0.3,88.9,0,88.9,0
			C302.1,175.6,320.4,114.2,305.8,74.9z M127.9,106.2l-0.4,0.6L127.9,106.2L127.9,106.2z"/>
		<path class="st1" d="M126.7,108c0.4-0.6,0.8-1.2,1.2-1.8c20.2-30.7,41.6-53.1,63.5-66.1c-1.8-3.5-3.9-6.9-6.2-10.1
			C158.4-7.1,89.9-16.5,62.4,40.8c-3.5,7.2-6,14.9-7.3,22.7C78.3,65.7,101.9,85.6,126.7,108z"/>
		<path class="st2" d="M144.4,175.7c-97.6,2.5-129.5-5.8-141.6-42.1c-9.4-28.1,4.8-64.7,42.4-69.8c60.3-8.3,121.2,117.7,201.6,111.2
			C239.4,176.4,211.9,174.9,144.4,175.7z"/>
		<path class="st3" d="M2.4,132.4c30.7,50.2,89.9,27.7,125.4-26.2C157.7,61,190,33.7,222.8,28c38-6.5,71.3,15.3,83,46.9
			c14.6,39.3-3.7,100.7-71.2,100.7c0,0-53.9-0.3-88.9,0C44,176.5,16.4,172.1,2.4,132.4z"/>
		
			<linearGradient id="SVGID_1_" gradientUnits="userSpaceOnUse" x1="18.0923" y1="102.804" x2="90.8034" y2="30.1028" gradientTransform="matrix(1 0 0 -1 0 178)">
			<stop  offset="0" style="stop-color:#5580FF;stop-opacity:0"/>
			<stop  offset="1" style="stop-color:#2861E8"/>
		</linearGradient>
		<path class="st4" d="M126.7,108c-28.3-25.6-55-48-81.5-44.3c-37,5.1-51.3,40.7-42.7,68.7C32.8,182,91,160.5,126.7,108z"/>
		
			<linearGradient id="SVGID_2_" gradientUnits="userSpaceOnUse" x1="123.21" y1="177.9993" x2="123.21" y2="70" gradientTransform="matrix(1 0 0 -1 0 178)">
			<stop  offset="9.000000e-02" style="stop-color:#4E9DE8;stop-opacity:0"/>
			<stop  offset="0.92" style="stop-color:#7FFFD6"/>
		</linearGradient>
		<path class="st5" d="M126.7,108c0.4-0.6,0.8-1.2,1.2-1.8c20.2-30.7,41.6-53.1,63.5-66.1c-1.8-3.5-3.9-6.9-6.2-10.1
			C158.4-7.1,89.9-16.5,62.4,40.8c-3.5,7.2-6,14.9-7.3,22.7C78.3,65.7,101.9,85.6,126.7,108z"/>
		<path class="st0" d="M464.7,110.9v40.8c0,7.1-5.8,12.9-12.9,12.9s-12.9-5.8-12.9-12.9v-40.8c0-15.3-11.2-27.7-24.8-27.7
			c-16.9,0-25.5,16.8-25.5,31.8v36.7c0.6,7.2-4.8,13.4-11.9,14s-13.4-4.8-14-11.9c-0.1-0.7-0.1-1.4,0-2V69.2c0-7.2,5.8-13,13-13
			c5.5,0,10.4,3.6,12.1,8.9c7.8-5.1,17-7.8,26.4-7.8C442,57.3,464.7,81.3,464.7,110.9z"/>
		<path class="st0" d="M532.1,165.8c-28.1,0-51.2-24.4-51.2-54.2V70.3c0-7.1,5.4-13,12.1-13c6.9,0,13.6,5.8,13.6,13v41.3
			c0,15.6,13,28.1,25.5,28.1c14.7,0,25.7-12.5,25.7-28.1V72c0-7.3,7.6-13,13.4-13c6.7,0,12.3,5.6,12.3,13v39.5
			C583.5,141.4,560.4,165.8,532.1,165.8z"/>
		<path class="st0" d="M710.9,110.3c0,30.2-24.5,54.6-54.7,54.7c-11,0.1-21.8-3.2-30.9-9.5c-1.8,5.4-6.8,9-12.5,9.1
			c-7.2,0.1-13.1-5.6-13.2-12.8c0-0.1,0-0.1,0-0.2V14.1c-0.2-7.2,5.5-13.2,12.7-13.4s13.2,5.5,13.4,12.7c0,0.2,0,0.5,0,0.7v50.5
			c9.1-5.9,19.6-9,30.5-9.1C686.4,55.7,710.9,80.1,710.9,110.3z M684.8,110.3c0-15.7-12.8-28.5-28.5-28.5
			c-15.7,0-28.5,12.8-28.5,28.5s12.8,28.5,28.5,28.5C672,138.7,684.7,126,684.8,110.3z"/>
		<path class="st0" d="M740.7,38.3c-7.4,0.1-13.5-5.8-13.6-13.2v-1.1c0-7.4,6-13.4,13.4-13.4c7.4,0,13.4,6,13.4,13.4v1.1
			C753.8,32.4,748,38.2,740.7,38.3z M740.7,165.1c-7.5,0.1-13.5-5.9-13.6-13.4c0,0,0,0,0,0V68.4c0-7.4,6-13.4,13.4-13.4
			c7.4,0,13.4,6,13.4,13.4v83.4C753.9,159.1,748,165,740.7,165.1L740.7,165.1z"/>
	</g>
</g>
</svg>
