<?xml version="1.0" encoding="UTF-8" standalone="no"?>
<svg width="54px" height="48px" viewBox="0 0 54 48" version="1.1" xmlns="http://www.w3.org/2000/svg" xmlns:xlink="http://www.w3.org/1999/xlink">
    <!-- Generator: Sketch 41.2 (35397) - http://www.bohemiancoding.com/sketch -->
    <title>ic_landing_banco</title>
    <desc>Created with Sketch.</desc>
    <defs>
        <polygon id="path-1" points="53.0836825 15.7099582 53.0836825 0.332838097 26.5418626 0.332838097 4.27492905e-05 0.332838097 4.27492905e-05 15.7099582 53.0836825 15.7099582"></polygon>
    </defs>
    <g id="LANDING-V2" stroke="none" stroke-width="1" fill="none" fill-rule="evenodd">
        <g id="Propuesta-1---it2-Copy-2" transform="translate(-818.000000, -1557.000000)">
            <g id="ic_landing_banco" transform="translate(818.000000, 1557.000000)">
                <g id="Group-3" transform="translate(0.372952, 0.604441)">
                    <mask id="mask-2" fill="white">
                        <use xlink:href="#path-1"></use>
                    </mask>
                    <g id="Clip-2"></g>
                    <path d="M52.8139505,13.0472534 C50.506273,11.8046579 37.1927491,4.88162543 30.4472303,1.33135239 C27.9620392,7.95474797e-14 25.0330639,7.95474797e-14 22.5478728,1.33135239 C15.8911109,4.88162543 2.57758698,11.8046579 0.269909508,13.0472534 C0.00363902986,13.2247671 -0.0851177961,13.5797944 0.0923958558,13.8460648 C0.536179986,14.4673626 0.891207289,14.9999036 1.33499142,15.5324445 C1.51250507,15.7099582 1.86753237,15.7099582 2.04504603,15.7099582 L4.3527235,15.7099582 L16.9561928,15.7099582 L26.4531732,15.7099582 L35.9501535,15.7099582 L48.7311365,15.7099582 L51.038814,15.7099582 C51.3050844,15.7099582 51.6601117,15.7099582 51.7488686,15.5324445 C52.1926527,14.9999036 52.54768,14.3786058 52.9914641,13.8460648 C53.1689778,13.5797944 53.080221,13.1360102 52.8139505,13.0472534" id="Fill-1" fill="#4E9DE8" mask="url(#mask-2)"></path>
                </g>
                <path d="M50.1690818,43.2964744 C49.6365409,43.2964744 49.2815136,42.8526903 49.2815136,42.4089061 L49.2815136,41.8763652 C49.2815136,41.3438242 48.8377295,40.9887969 48.3939453,40.9887969 L47.7726475,40.9887969 L38.0093967,40.9887969 L16.0864607,40.9887969 L6.234453,40.9887969 L5.61315522,40.9887969 C5.08061426,40.9887969 4.72558696,41.4325811 4.72558696,41.8763652 L4.72558696,42.4089061 C4.72558696,42.9414471 4.28180283,43.2964744 3.8380187,43.2964744 C3.30547774,43.2964744 2.95045044,43.7402585 2.95045044,44.1840427 L2.95045044,46.7579906 C2.95045044,47.2905316 3.39423457,47.6455589 3.8380187,47.6455589 L50.1690818,47.6455589 C50.7016228,47.6455589 51.0566501,47.2017747 51.0566501,46.7579906 L51.0566501,44.1840427 C51.0566501,43.7402585 50.7016228,43.2964744 50.1690818,43.2964744" id="Fill-4" fill="#4E9DE8"></path>
                <polygon id="Fill-6" fill="#4E9DE8" points="8.45337365 39.3911741 13.5125127 39.3911741 13.5125127 18.000779 8.45337365 18.000779"></polygon>
                <polygon id="Fill-8" fill="#4E9DE8" points="24.3408455 39.3911741 29.3999846 39.3911741 29.3999846 18.000779 24.3408455 18.000779"></polygon>
                <polygon id="Fill-9" fill="#4E9DE8" points="40.3170742 39.3911741 45.3762132 39.3911741 45.3762132 18.000779 40.3170742 18.000779"></polygon>
            </g>
        </g>
    </g>
</svg>