<?xml version="1.0" encoding="UTF-8" standalone="no"?>
<svg width="43px" height="50px" viewBox="0 0 43 50" version="1.1" xmlns="http://www.w3.org/2000/svg" xmlns:xlink="http://www.w3.org/1999/xlink">
    <!-- Generator: Sketch 41.2 (35397) - http://www.bohemiancoding.com/sketch -->
    <title>ic_landing </title>
    <desc>Created with Sketch.</desc>
    <defs></defs>
    <g id="LANDING-V2" stroke="none" stroke-width="1" fill="none" fill-rule="evenodd">
        <g id="Propuesta-1---it2-Copy-2" transform="translate(-575.000000, -1559.000000)" fill="#4E9DE8">
            <g id="ic_landing-" transform="translate(575.000000, 1559.000000)">
                <path d="M17.1142515,10.4579985 C17.515164,10.2665997 17.945081,10.1692783 18.39072,10.1692783 L30.5132401,10.1692783 C32.0220155,10.1692783 33.4220919,10.2714658 34.6752484,10.4731374 C35.0447167,10.5326116 35.4049687,10.6004663 35.7551911,10.6783234 C36.107311,10.7556399 36.4510277,10.8434995 36.7828174,10.9408209 C36.9484411,10.988941 37.1129806,11.0400347 37.2750804,11.0935615 C37.4371803,11.1470883 37.5884373,11.2108879 37.7453868,11.2698214 C37.9907051,7.96575893 37.0652723,5.66113343 35.4665016,3.89745288 C33.1231017,1.31221726 28.9974168,0.155984623 23.6695366,0.155984623 L9.27002879,0.155984623 C8.18114073,0.155984623 7.25435251,0.945910218 7.08466271,2.01887897 L0.644853476,42.7441121 C0.517721661,43.5472842 1.14036938,44.2739509 1.95601891,44.2739509 L10.4380693,44.2739509 L15.4723807,12.6571925 C15.6236378,11.6996577 16.2373402,10.8778323 17.1142515,10.4579985" id="Fill-11"></path>
                <path d="M36.6339999,13.0224182 C36.4962964,12.9767312 36.35534,12.9323958 36.2116729,12.8913046 C35.9208149,12.805878 35.6218247,12.7301835 35.3138892,12.6620585 C35.0008034,12.5928522 34.6806698,12.531756 34.3513197,12.4790402 C33.2046938,12.2946701 31.9135875,12.2014038 30.5132401,12.2014038 L19.2554332,12.2014038 C18.9577984,12.2014038 18.6739881,12.2687178 18.4197245,12.3903695 C17.8607782,12.6574628 17.445499,13.1857019 17.3435767,13.830997 L15.310823,26.7212202 C15.5265947,26.6820213 15.7556489,26.6574206 16.0050332,26.6574206 L20.5424734,26.6574206 C22.9495747,26.6574206 25.0997017,26.387624 26.9982758,25.844246 C31.802991,24.4695809 35.0330607,21.3496181 36.6521616,16.394065 C37.0105161,15.2964955 37.273454,14.2819196 37.4580526,13.3341171 C37.1943016,13.2216567 36.9199788,13.1170362 36.6339999,13.0224182" id="Fill-12"></path>
                <path d="M40.8025139,15.3675942 C40.4132574,14.9250521 39.9383429,14.5519866 39.4271049,14.2086582 C38.1720509,20.2625918 34.4285747,28.7828125 20.3977221,28.7828125 C20.3681754,28.7828125 16.9193522,28.771188 16.9193522,28.771188 C15.8304642,28.771188 14.9112659,29.5613839 14.7415761,30.633812 C14.7415761,30.633812 12.0395507,47.6096429 11.9064553,48.5006746 C11.800738,49.2065253 12.4141694,49.7801811 13.0571473,49.7801811 L20.0388254,49.7801811 C20.9913653,49.7801811 21.8024066,49.0889286 21.950953,48.1505878 L23.6435139,37.625816 C23.7920602,36.6874752 24.6028305,35.9962227 25.5556414,35.9962227 L26.7591921,35.9962227 C34.5554354,35.9962227 40.6599311,32.837061 42.4435715,23.7020933 C42.4967012,23.4309449 42.5427831,23.1576339 42.5853411,22.8829712 C42.9539963,19.8216716 42.4579382,17.2486012 40.8025139,15.3675942" id="Fill-13"></path>
            </g>
        </g>
    </g>
</svg>