<?xml version="1.0" encoding="UTF-8" standalone="no"?>
<svg width="63px" height="56px" viewBox="0 0 63 56" version="1.1" xmlns="http://www.w3.org/2000/svg" xmlns:xlink="http://www.w3.org/1999/xlink">
    <!-- Generator: Sketch 41.2 (35397) - http://www.bohemiancoding.com/sketch -->
    <title>ic_landing_cobro</title>
    <desc>Created with Sketch.</desc>
    <defs>
        <polygon id="path-1" points="33.57695 49.134 0 49.134 0 0 33.57695 0 67.1539 0 67.1539 49.134 33.57695 49.134"></polygon>
    </defs>
    <g id="LANDING-V2" stroke="none" stroke-width="1" fill="none" fill-rule="evenodd">
        <g id="Propuesta-1---it2-Copy-2" transform="translate(-1065.000000, -1557.000000)">
            <g id="ic_landing_cobro" transform="translate(1061.000000, 1557.000000)">
                <g id="Page-1">
                    <mask id="mask-2" fill="white">
                        <use xlink:href="#path-1"></use>
                    </mask>
                    <g id="Clip-2"></g>
                    <path d="M34.3519,20.957 C32.9299,20.957 31.7729,22.114 31.7729,23.536 L31.7729,24.967 C31.7729,26.39 32.9299,27.547 34.3519,27.547 L50.1659,27.547 C51.5879,27.547 52.7449,26.39 52.7449,24.967 L52.7449,23.536 C52.7459,22.114 51.5889,20.957 50.1669,20.957 L34.3519,20.957 Z M23.3939,17.484 L39.2079,17.484 C40.6299,17.484 41.7869,16.327 41.7869,14.904 L41.7869,13.473 C41.7869,12.051 40.6299,10.894 39.2079,10.894 L23.3939,10.894 C21.9719,10.894 20.8149,12.051 20.8149,13.473 L20.8149,14.904 C20.8149,16.327 21.9719,17.484 23.3939,17.484 L23.3939,17.484 Z M34.3519,6.589 L50.1659,6.589 C51.5879,6.589 52.7449,5.432 52.7449,4.01 L52.7449,2.579 C52.7449,1.157 51.5879,0 50.1659,0 L34.3519,0 C32.9299,0 31.7729,1.157 31.7729,2.579 L31.7729,4.01 C31.7729,5.431 32.9299,6.589 34.3519,6.589 L34.3519,6.589 Z" id="Fill-1" fill="#4E9DE8" mask="url(#mask-2)"></path>
                </g>
                <path d="M65.054,38.4849432 C64.324,38.3899432 63.501,38.5489432 62.797,38.8049432 C58.558,40.3439432 54.525,42.1379432 50.302,43.7229432 C50.094,43.8009432 49.852,43.8889432 49.717,44.0489432 C48.618,45.3439432 47.169,45.8669432 45.546,45.8869432 C42.92,45.9179432 40.294,46.0059432 37.668,46.0679432 C35.887,46.1099432 34.106,46.1559432 32.325,46.1879432 C31.875,46.1959432 31.308,45.6949432 31.278,45.1689432 C31.248,44.6419432 31.608,44.4629432 32.065,44.4179432 C32.247,44.3999432 32.429,44.3869432 32.612,44.3819432 C34.827,44.3249432 37.041,44.2709432 39.256,44.2159432 C41.585,44.1579432 43.916,44.1419432 46.242,44.0279432 C47.868,43.9479432 48.974,42.7379432 49.001,41.1799432 C49.03,39.5069432 47.732,38.2419432 45.968,38.2749432 C43.355,38.3249432 40.049,37.9669432 37.369,37.5519432 C34.181,37.0579432 32.63,35.4259432 29.537,34.4319432 C24.771,32.8999432 19.892,33.4559432 14.972,33.5569432 C14.963,33.2139432 14.955,32.8719432 14.946,32.5289432 C14.918,31.4469432 14.392,30.9759432 13.297,31.0009432 C10.422,31.0669432 7.547,31.1369432 4.673,31.2079432 C4.496,31.2119432 4.32,31.2349432 4,31.2599432 C4.16,32.7919432 4.27,34.2859432 4.48,35.7649432 C5.265,41.2799432 7.187,46.3789432 10.201,51.0609432 C10.339,51.2749432 10.685,51.4679432 10.939,51.4749432 C11.919,51.5009432 12.901,51.4559432 13.882,51.4219432 C14.854,51.3879432 15.389,50.8369432 15.366,49.8469432 C15.36,49.5659432 15.353,49.2849432 15.346,49.0049432 C15.351,49.0059432 15.354,49.0079432 15.359,49.0089432 C17.571,49.6379432 19.773,50.3039432 21.982,50.9429432 C26.095,52.1309432 30.185,53.4129432 34.334,54.4559432 C37.776,55.3209432 41.246,55.4229432 44.518,53.6219432 C51.45,49.8059432 58.387,45.9999432 65.313,42.1729432 C65.659,41.9819432 65.971,41.6679432 66.202,41.3429432 C66.984,40.2339432 66.395,38.6589432 65.054,38.4849432" id="Fill-1" fill="#4E9DE8"></path>
            </g>
        </g>
    </g>
</svg>