<?xml version="1.0" encoding="UTF-8" standalone="no"?>
<svg width="182px" height="226px" viewBox="0 0 182 226" version="1.1" xmlns="http://www.w3.org/2000/svg" xmlns:xlink="http://www.w3.org/1999/xlink">
    <!-- Generator: Sketch 41.2 (35397) - http://www.bohemiancoding.com/sketch -->
    <title>ic_landing_carrito</title>
    <desc>Created with Sketch.</desc>
    <defs>
        <polygon id="path-1" points="0 225.68669 181.868867 225.68669 181.868867 0.188383105 0 0.188383105"></polygon>
    </defs>
    <g id="LANDING-V2" stroke="none" stroke-width="1" fill="none" fill-rule="evenodd">
        <g id="Propuesta-1---it2-Copy-2" transform="translate(-1024.000000, -3164.000000)">
            <g id="ic_landing_carrito" transform="translate(1024.000000, 3164.000000)">
                <polygon id="Fill-1" fill="#5580FF" points="154.1386 87.6312508 181.868867 87.6312508 181.868867 58.4896901 154.1386 58.4896901"></polygon>
                <g id="Group-43" transform="translate(0.000000, 0.277912)">
                    <path d="M168.00392,54.0544337 C169.897187,54.0544337 171.61172,54.8214886 172.853053,56.0609003 C174.09392,57.3007782 174.86112,59.0139453 174.86112,60.9061697 L174.111187,60.9061697 C174.111187,59.2209802 173.427053,57.6952636 172.322453,56.5910775 C171.217387,55.4868914 169.690453,54.8037694 168.00392,54.8037694 C166.317387,54.8037694 164.790453,55.4868914 163.685387,56.5910775 C162.579853,57.6952636 161.896187,59.2209802 161.896187,60.9061697 L161.14672,60.9061697 C161.14672,59.0139453 161.91392,57.3007782 163.154787,56.0609003 C164.395653,54.8214886 166.110187,54.0544337 168.00392,54.0544337 Z" id="Fill-2" fill="#5580FF"></path>
                    <path d="M168.00392,54.0544337 C169.897187,54.0544337 171.61172,54.8214886 172.853053,56.0609003 C174.09392,57.3007782 174.86112,59.0139453 174.86112,60.9061697 L174.111187,60.9061697 C174.111187,59.2209802 173.427053,57.6952636 172.322453,56.5910775 C171.217387,55.4868914 169.690453,54.8037694 168.00392,54.8037694 C166.317387,54.8037694 164.790453,55.4868914 163.685387,56.5910775 C162.579853,57.6952636 161.896187,59.2209802 161.896187,60.9061697 L161.14672,60.9061697 C161.14672,59.0139453 161.91392,57.3007782 163.154787,56.0609003 C164.395653,54.8214886 166.110187,54.0544337 168.00392,54.0544337 Z" id="Stroke-4" stroke="#5580FF" stroke-width="2"></path>
                    <path d="M131.084333,40.002313 C130.7264,40.4877259 130.056733,40.6042996 129.588667,40.2601741 C129.120133,39.9151159 129.031467,39.2413199 129.389867,38.755907 C129.7492,38.2690952 130.417933,38.1534541 130.886933,38.4985123 C131.354533,38.8421715 131.4432,39.5159675 131.084333,40.002313 M150.556933,23.837737 L145.465133,20.0905919 C145.1422,19.8523152 144.613,19.4638916 144.290067,19.2260813 L139.198267,15.4789361 C138.874867,15.2411258 138.415667,15.31107 138.178133,15.633746 L124.574333,34.0892285 C124.3368,34.4123708 124.2948,34.9672616 124.482867,35.3211794 L127.841,41.6665192 C128.0286,42.0209033 128.5046,42.3720233 128.8994,42.4447653 L135.959133,43.7657785 C136.3544,43.8394531 136.871467,43.6356822 137.109467,43.3134725 L150.711867,24.8570575 C150.950333,24.5339152 150.880333,24.0764799 150.556933,23.837737" id="Fill-6" fill="#5580FF"></path>
                    <polygon id="Fill-8" fill="#5580FF" points="131.93012 43.0120595 129.591187 42.5742087 129.874453 41.6537428 132.26192 41.6458157"></polygon>
                    <path d="M89.4806267,77.0041588 L89.4806267,77.0041588 C90.37756,77.0041588 91.1106933,77.7362417 91.1106933,78.6324603 L91.1106933,91.6159731 C91.1106933,92.5121918 90.37756,93.2442746 89.4806267,93.2442746 C88.5846267,93.2442746 87.85056,92.5121918 87.85056,91.6159731 L87.85056,78.6324603 C87.85056,77.7362417 88.5846267,77.0041588 89.4806267,77.0041588" id="Fill-10" fill="#5580FF"></path>
                    <path d="M81.3540467,85.1234707 L81.3540467,85.1234707 C81.3540467,84.2281846 82.0881133,83.4956355 82.9841133,83.4956355 L95.97798,83.4956355 C96.87398,83.4956355 97.6080467,84.2281846 97.6080467,85.1234707 C97.6080467,86.0206219 96.87398,86.7522384 95.97798,86.7522384 L82.9841133,86.7522384 C82.0881133,86.7522384 81.3540467,86.0206219 81.3540467,85.1234707" id="Fill-12" fill="#5580FF"></path>
                    <path d="M100.336133,151.719323 L100.618933,144.453517 L111.806333,144.453517 L110.7876,151.719323 L100.336133,151.719323 Z M99.8312,164.623566 L100.114,157.35776 L109.999867,157.35776 L108.984867,164.623566 L99.8312,164.623566 Z M99.3570667,176.730444 L99.6086,170.259671 L108.195267,170.259671 L107.289467,176.730444 L99.3570667,176.730444 Z M85.2254667,151.719323 L84.6094667,144.453517 L94.976,144.453517 L94.6908667,151.719323 L85.2254667,151.719323 Z M86.3226,164.623566 L85.7042667,157.35776 L94.4687333,157.35776 L94.1859333,164.623566 L86.3226,164.623566 Z M87.353,176.730444 L86.8009333,170.259671 L93.9661333,170.259671 L93.7122667,176.730444 L87.353,176.730444 Z M66.2811333,170.259671 L67.2518,176.730444 L60.5831333,176.730444 L58.7519333,170.259671 L66.2811333,170.259671 Z M64.3454,157.35776 L65.436,164.623566 L57.1564,164.623566 L55.0984,157.35776 L64.3454,157.35776 Z M62.412,144.453517 L63.4998,151.719323 L53.5005333,151.719323 L51.4425333,144.453517 L62.412,144.453517 Z M69.2052667,151.719323 L68.1146667,144.453517 L78.9464667,144.453517 L79.5648,151.719323 L69.2052667,151.719323 Z M71.1386667,164.623566 L70.0485333,157.35776 L80.0436,157.35776 L80.6642667,164.623566 L71.1386667,164.623566 Z M72.9544667,176.730444 L71.9842667,170.259671 L81.1426,170.259671 L81.6923333,176.730444 L72.9544667,176.730444 Z M60.3852667,130.937496 L61.5640667,138.817412 L49.847,138.817412 L47.6172667,130.937496 L60.3852667,130.937496 Z M77.7984667,130.937496 L78.4681333,138.817412 L67.2695333,138.817412 L66.0856,130.937496 L77.7984667,130.937496 Z M95.5033333,130.937496 L95.1944,138.817412 L84.1288,138.817412 L83.4591333,130.937496 L95.5033333,130.937496 Z M113.697733,130.937496 L112.5964,138.817412 L100.8392,138.817412 L101.148133,130.937496 L113.697733,130.937496 Z M127.315533,138.817412 L118.290667,138.817412 L119.392,130.937496 L128.972667,130.937496 L127.315533,138.817412 Z M124.598133,151.719323 L116.486067,151.719323 L117.500133,144.453517 L126.129733,144.453517 L124.598133,151.719323 Z M121.884,164.623566 L114.678667,164.623566 L115.696,157.35776 L123.412333,157.35776 L121.884,164.623566 Z M119.336467,176.730444 L112.983733,176.730444 L113.8914,170.259671 L120.6982,170.259671 L119.336467,176.730444 Z M57.9194,183.775226 L121.470067,183.775226 C123.1678,184.594506 128.089733,187.651535 127.512933,195.281984 L53.6895333,195.281984 C51.7426,195.281984 50.1648,196.85806 50.1648,198.804841 C50.1648,200.748824 51.7426,202.3249 53.6895333,202.3249 L130.539733,202.3249 C132.195,202.3249 133.623467,201.180147 133.981867,199.564901 C136.500467,188.193836 130.995667,181.379404 126.200667,178.34569 L136.7786,128.089833 L159.963533,118.594206 C161.763933,117.856994 162.627733,115.800633 161.888533,113.999803 C161.1498,112.200371 159.091333,111.337726 157.289533,112.07587 L132.375133,122.278867 C131.600933,122.595015 130.9756,123.171356 130.595267,123.893646 L43.0028667,123.893646 L42.8712667,123.893646 L35.9650667,123.893646 C33.8842,123.893646 32.1995333,125.471588 32.1995333,127.41697 C32.1995333,129.36002 33.8842,130.937496 35.9650667,130.937496 L40.2854667,130.937496 L54.5262667,181.213869 C54.9579333,182.728861 56.3420667,183.775226 57.9194,183.775226 L57.9194,183.775226 Z" id="Fill-14" fill="#5580FF"></path>
                    <path d="M55.35614,215.236044 C55.35614,221.006443 60.0400733,225.686644 65.81414,225.686644 C71.59054,225.686644 76.2740067,221.006443 76.2740067,215.236044 C76.2740067,209.463314 71.59054,204.785445 65.81414,204.785445 C60.0400733,204.785445 55.35614,209.463314 55.35614,215.236044" id="Fill-16" fill="#5580FF"></path>
                    <path d="M60.5272733,215.236044 C60.5272733,218.153185 62.8946733,220.516367 65.81414,220.516367 C68.7336067,220.516367 71.1028733,218.153185 71.1028733,215.236044 C71.1028733,212.31564 68.7336067,209.952458 65.81414,209.952458 C62.8946733,209.952458 60.5272733,212.31564 60.5272733,215.236044" id="Fill-18" fill="#FFFFFF"></path>
                    <path d="M111.80638,215.236044 C111.80638,221.006443 116.490313,225.686644 122.26438,225.686644 C128.04078,225.686644 132.724247,221.006443 132.724247,215.236044 C132.724247,209.463314 128.04078,204.785445 122.26438,204.785445 C116.490313,204.785445 111.80638,209.463314 111.80638,215.236044" id="Fill-20" fill="#5580FF"></path>
                    <path d="M116.977513,215.236044 C116.977513,218.153185 119.344913,220.516367 122.26438,220.516367 C125.183847,220.516367 127.553113,218.153185 127.553113,215.236044 C127.553113,212.31564 125.183847,209.952458 122.26438,209.952458 C119.344913,209.952458 116.977513,212.31564 116.977513,215.236044" id="Fill-22" fill="#FFFFFF"></path>
                    <path d="M23.41122,70.1826854 L23.41122,70.1826854 C23.0462867,70.795863 22.68882,71.3945856 22.34162,71.9639315 C23.59322,71.3568157 24.8340867,70.647115 25.98582,69.8408913 C27.8893533,68.504024 29.5310867,66.9125598 30.5255533,65.0898134 C31.2152867,63.8303511 31.3706867,62.8674523 31.16302,62.2822523 C31.11122,62.1358357 31.0393533,62.0309194 30.9506867,61.9758966 C30.8461533,61.9087502 30.69262,61.8789073 30.4970867,61.8905647 C29.7233533,61.9357953 28.66822,62.5587651 27.5309533,63.9352674 C26.1141533,65.6470357 24.70622,68.0097515 23.41122,70.1826854 L23.41122,70.1826854 Z M17.7402867,73.9060495 C18.6325533,73.0676514 19.8337533,71.0527915 21.1525533,68.8425541 C22.51382,66.5544454 23.9954867,64.069094 25.4976867,62.2538083 C27.14502,60.2617969 28.9052867,59.3459939 30.3435533,59.2606619 C31.10142,59.2158976 31.7906867,59.3912245 32.36562,59.7595974 C32.9568867,60.1372962 33.4006867,60.6968499 33.6512867,61.4065507 C34.0852867,62.6380353 33.9191533,64.3703205 32.8378867,66.3492757 C31.6254867,68.5655749 29.7037533,70.449406 27.5024867,71.9956396 C24.8457533,73.8584874 21.7573533,75.2447819 19.04602,76.1176858 L13.4702867,77.9152523 L17.7402867,73.9060495 Z" id="Fill-24" fill="#5580FF"></path>
                    <path d="M12.0693067,70.1826854 L12.0693067,70.1826854 C12.43424,70.795863 12.7921733,71.3945856 13.1393733,71.9639315 C11.88824,71.3568157 10.64644,70.647115 9.49470667,69.8408913 C7.59257333,68.504024 5.94990667,66.9125598 4.95450667,65.0898134 C4.26617333,63.8303511 4.11077333,62.8674523 4.31657333,62.2822523 C4.36884,62.1358357 4.44210667,62.0309194 4.52937333,61.9758966 C4.63297333,61.9087502 4.78837333,61.8789073 4.98437333,61.8905647 C5.75717333,61.9357953 6.81184,62.5587651 7.95050667,63.9352674 C9.36590667,65.6470357 10.7743067,68.0097515 12.0693067,70.1826854 L12.0693067,70.1826854 Z M17.74024,73.9060495 C16.8475067,73.0676514 15.6463067,71.0527915 14.3289067,68.8425541 C12.9657733,66.5544454 11.4841067,64.069094 9.98284,62.2538083 C8.33597333,60.2617969 6.57617333,59.3459939 5.13884,59.2606619 C4.37910667,59.2158976 3.69030667,59.3912245 3.11537333,59.7595974 C2.52364,60.1372962 2.07937333,60.6968499 1.82924,61.4065507 C1.39524,62.6380353 1.56090667,64.3703205 2.64264,66.3492757 C3.85364,68.5655749 5.77584,70.449406 7.97804,71.9956396 C10.6357067,73.8584874 13.7245733,75.2447819 16.4349733,76.1176858 L22.0111733,77.9152523 L17.74024,73.9060495 Z" id="Fill-26" fill="#5580FF"></path>
                    <mask id="mask-2" fill="white">
                        <use xlink:href="#path-1"></use>
                    </mask>
                    <g id="Clip-29"></g>
                    <polygon id="Fill-28" fill="#5580FF" mask="url(#mask-2)" points="1.60393333 96.3425705 33.8767333 96.3425705 33.8767333 80.1024547 1.60393333 80.1024547"></polygon>
                    <polygon id="Fill-30" fill="#5580FF" mask="url(#mask-2)" points="0 80.1024547 35.4802 80.1024547 35.4802 73.9058629 0 73.9058629"></polygon>
                    <polygon id="Fill-31" fill="#5580FF" mask="url(#mask-2)" points="17.7403333 96.3425705 33.8767333 96.3425705 33.8767333 80.1047862 17.7403333 80.1047862"></polygon>
                    <polygon id="Fill-32" fill="#5580FF" mask="url(#mask-2)" points="1.60412 80.1045531 17.7400533 80.1045531 17.7400533 73.9060961 0.000186666666 73.9060961 0.000186666666 80.1045531"></polygon>
                    <polygon id="Fill-33" fill="#5580FF" mask="url(#mask-2)" points="14.8568 96.3425705 20.6238667 96.3425705 20.6238667 73.9058629 14.8568 73.9058629"></polygon>
                    <path d="M16.21144,68.713437 L19.2685733,68.713437 C20.0133733,68.713437 20.62424,69.3228843 20.62424,70.0666246 L20.62424,72.5515096 C20.62424,73.2966488 20.0133733,73.9060961 19.2685733,73.9060961 L16.21144,73.9060961 C15.4657067,73.9060961 14.8567067,73.2966488 14.8567067,72.5515096 L14.8567067,70.0666246 C14.8567067,69.3228843 15.4657067,68.713437 16.21144,68.713437" id="Fill-34" fill="#5580FF" mask="url(#mask-2)"></path>
                    <path d="M83.3371,12.8714155 L80.5856333,12.8714155 C80.8805667,12.1971532 81.0448333,11.4524804 81.0448333,10.6709703 C81.0448333,7.62793035 78.5743,5.1598319 75.5293,5.1598319 C74.9044333,5.1598319 74.3024333,5.26521453 73.7424333,5.45732799 C72.8627667,2.41428803 70.0548333,0.188196587 66.7279667,0.188196587 C63.7697667,0.188196587 61.2231667,1.94612804 60.0751667,4.47391223 C58.8777,3.76980706 57.4842333,3.36552945 55.9960333,3.36552945 C51.5435667,3.36552945 47.9320333,6.97231984 47.9320333,11.421705 C47.9320333,11.9169101 47.9782333,12.402323 48.0627,12.8714155 L47.5349,12.8714155 C44.7372333,12.8714155 42.4487,15.1595242 42.4487,17.9544953 C42.4487,20.7494664 44.7372333,23.0366425 47.5349,23.0366425 L83.3371,23.0366425 C86.1343,23.0366425 88.4233,20.7494664 88.4233,17.9544953 C88.4233,15.1595242 86.1343,12.8714155 83.3371,12.8714155" id="Fill-35" fill="#5580FF" mask="url(#mask-2)"></path>
                    <path d="M9.09640667,27.782731 C9.09640667,28.7638153 8.30027333,29.5593143 7.31840667,29.5593143 C6.33654,29.5593143 5.54040667,28.7638153 5.54040667,27.782731 C5.54040667,26.8016467 6.33654,26.0061478 7.31840667,26.0061478 C8.30027333,26.0061478 9.09640667,26.8016467 9.09640667,27.782731" id="Fill-36" fill="#28E5D7" mask="url(#mask-2)"></path>
                    <path d="M120.068527,3.65160132 C120.068527,4.63268561 119.272393,5.42818457 118.290527,5.42818457 C117.30866,5.42818457 116.512527,4.63268561 116.512527,3.65160132 C116.512527,2.67051703 117.30866,1.87501808 118.290527,1.87501808 C119.272393,1.87501808 120.068527,2.67051703 120.068527,3.65160132" id="Fill-37" fill="#54FFC8" mask="url(#mask-2)"></path>
                    <path d="M132.015427,85.1241701 C132.015427,86.1052544 131.219293,86.9007533 130.237427,86.9007533 C129.25556,86.9007533 128.459427,86.1052544 128.459427,85.1241701 C128.459427,84.1430858 129.25556,83.3475869 130.237427,83.3475869 C131.219293,83.3475869 132.015427,84.1430858 132.015427,85.1241701" id="Fill-38" fill="#54FFC8" mask="url(#mask-2)"></path>
                    <path d="M75.6178733,54.0544337 C75.6178733,55.035518 74.82174,55.8310169 73.8398733,55.8310169 C72.8580067,55.8310169 72.0618733,55.035518 72.0618733,54.0544337 C72.0618733,53.0733494 72.8580067,52.2778504 73.8398733,52.2778504 C74.82174,52.2778504 75.6178733,53.0733494 75.6178733,54.0544337" id="Fill-39" fill="#54FFC8" mask="url(#mask-2)"></path>
                    <path d="M16.6349867,113.588624 C16.6349867,114.569708 15.8388533,115.365207 14.8569867,115.365207 C13.87512,115.365207 13.0789867,114.569708 13.0789867,113.588624 C13.0789867,112.60754 13.87512,111.812041 14.8569867,111.812041 C15.8388533,111.812041 16.6349867,112.60754 16.6349867,113.588624" id="Fill-40" fill="#28E5D7" mask="url(#mask-2)"></path>
                    <path d="M115.556,108.776583 C115.556,109.757668 114.759867,110.553166 113.778,110.553166 C112.796133,110.553166 112,109.757668 112,108.776583 C112,107.795499 112.796133,107 113.778,107 C114.759867,107 115.556,107.795499 115.556,108.776583" id="Fill-41" fill="#54FFC8" mask="url(#mask-2)"></path>
                    <path d="M178.417213,34.8933539 C178.417213,35.8744382 177.62108,36.6699371 176.639213,36.6699371 C175.657347,36.6699371 174.861213,35.8744382 174.861213,34.8933539 C174.861213,33.9122696 175.657347,33.1167707 176.639213,33.1167707 C177.62108,33.1167707 178.417213,33.9122696 178.417213,34.8933539" id="Fill-42" fill="#54FFC8" mask="url(#mask-2)"></path>
                </g>
            </g>
        </g>
    </g>
</svg>