<?xml version="1.0" encoding="UTF-8" standalone="no"?>
<svg width="59px" height="59px" viewBox="0 0 59 59" version="1.1" xmlns="http://www.w3.org/2000/svg" xmlns:xlink="http://www.w3.org/1999/xlink">
    <!-- Generator: Sketch 41.2 (35397) - http://www.bohemiancoding.com/sketch -->
    <title>ic_landing_cambio</title>
    <desc>Created with Sketch.</desc>
    <defs></defs>
    <g id="LANDING-V2" stroke="none" stroke-width="1" fill="none" fill-rule="evenodd">
        <g id="Propuesta-1---it2-Copy-2" transform="translate(-1027.000000, -2064.000000)" stroke="#54FFC8" fill="#54FFC8">
            <g id="ic_landing_cambio" transform="translate(1028.000000, 2065.000000)">
                <path d="M28.5,17.3917323 C31.136811,17.3917323 33.2799213,19.5348425 33.2799213,22.1716535 C33.2799213,23.0468504 33.986811,23.7537402 34.8620079,23.7537402 C35.7372047,23.7537402 36.4440945,23.0468504 36.4440945,22.1716535 C36.4440945,18.334252 33.7062992,15.1251969 30.0820866,14.3846457 L30.0820866,11.9385827 C30.0820866,11.0633858 29.3751969,10.3564961 28.5,10.3564961 C27.6248031,10.3564961 26.9179134,11.0633858 26.9179134,11.9385827 L26.9179134,14.3846457 C23.2937008,15.1251969 20.5559055,18.334252 20.5559055,22.1716535 C20.5559055,26.5476378 24.1240157,30.115748 28.5,30.115748 C28.4326772,30.1269685 28.5112205,30.1269685 28.5224409,30.115748 C31.0133858,30.2840551 33.2687008,32.3261811 33.2687008,34.8507874 C33.2687008,37.4875984 31.1255906,39.6307087 28.4887795,39.6307087 C25.8519685,39.6307087 23.7088583,37.4875984 23.7088583,34.8507874 C23.7088583,33.9755906 23.0019685,33.2687008 22.1267717,33.2687008 C21.2515748,33.2687008 20.544685,33.9755906 20.544685,34.8507874 C20.544685,38.688189 23.2824803,41.8972441 26.9066929,42.6377953 L26.9066929,45.0614173 C26.9066929,45.9366142 27.6135827,46.6435039 28.4887795,46.6435039 C29.3639764,46.6435039 30.0708661,45.9366142 30.0708661,45.0614173 L30.0708661,42.6377953 C33.6950787,41.8972441 36.432874,38.688189 36.432874,34.8507874 C36.432874,30.4748031 32.8647638,26.9066929 28.4887795,26.9066929 C28.5561024,26.8954724 28.4775591,26.8954724 28.4663386,26.9066929 C25.9753937,26.7383858 23.7200787,24.6962598 23.7200787,22.1716535 C23.7200787,19.5348425 25.863189,17.3917323 28.5,17.3917323" id="Fill-1"></path>
                <path d="M28.5,3.16417323 C35.7596457,3.16417323 42.6153543,6.29468504 47.3952756,11.6468504 L41.1679134,11.6468504 C40.2927165,11.6468504 39.5858268,12.3537402 39.5858268,13.228937 C39.5858268,14.1041339 40.2927165,14.8110236 41.1679134,14.8110236 L50.6716535,14.8110236 C51.5468504,14.8110236 52.2537402,14.1041339 52.2537402,13.228937 L52.2537402,3.72519685 C52.2537402,2.85 51.5468504,2.14311024 50.6716535,2.14311024 C49.7964567,2.14311024 49.0895669,2.85 49.0895669,3.72519685 L49.0895669,8.80807087 C43.748622,3.23149606 36.3431102,0 28.5,0 C12.7801181,0 0,12.7801181 0,28.5 C0,29.3751969 0.706889764,30.0820866 1.58208661,30.0820866 C2.45728346,30.0820866 3.16417323,29.3751969 3.16417323,28.5 C3.16417323,14.5305118 14.5305118,3.16417323 28.5,3.16417323" id="Fill-3"></path>
                <path d="M55.4179134,26.9179134 C54.5427165,26.9179134 53.8358268,27.6248031 53.8358268,28.5 C53.8358268,42.4694882 42.4694882,53.8358268 28.5,53.8358268 C20.0622047,53.8358268 12.2527559,49.6393701 7.56259843,42.75 L14.25,42.75 C15.1251969,42.75 15.8320866,42.0431102 15.8320866,41.1679134 C15.8320866,40.2927165 15.1251969,39.5858268 14.25,39.5858268 L4.74625984,39.5858268 C3.87106299,39.5858268 3.16417323,40.2927165 3.16417323,41.1679134 L3.16417323,50.6716535 C3.16417323,51.5468504 3.87106299,52.2537402 4.74625984,52.2537402 C5.62145669,52.2537402 6.32834646,51.5468504 6.32834646,50.6716535 L6.32834646,46.3966535 C11.6805118,53.0279528 19.7929134,57 28.5,57 C44.2198819,57 57,44.2198819 57,28.5 C57,27.6248031 56.2931102,26.9179134 55.4179134,26.9179134" id="Fill-5"></path>
            </g>
        </g>
    </g>
</svg>