<?xml version="1.0" encoding="UTF-8" standalone="no"?>
<svg width="59px" height="34px" viewBox="0 0 59 34" version="1.1" xmlns="http://www.w3.org/2000/svg" xmlns:xlink="http://www.w3.org/1999/xlink">
    <!-- Generator: Sketch 41.2 (35397) - http://www.bohemiancoding.com/sketch -->
    <title>ic_landing_nubi</title>
    <desc>Created with Sketch.</desc>
    <defs>
        <polygon id="path-1" points="0 0.237577854 0 17.2801439 22.7587294 17.2801439 22.7587294 0.237577854 7.56165262e-21 0.237577854"></polygon>
        <polygon id="path-3" points="24.4966925 0.421321794 0.034983558 0.421321794 0.034983558 19.1566483 24.4966925 19.1566483 24.4966925 0.421321794"></polygon>
        <polygon id="path-5" points="0.109358491 27.5373721 52.8971482 27.5373721 52.8971482 0.296447873 0.109358491 0.296447873"></polygon>
    </defs>
    <g id="LANDING-V2" stroke="none" stroke-width="1" fill="none" fill-rule="evenodd">
        <g id="Propuesta-1---it2-Copy-2" transform="translate(-315.000000, -1564.000000)">
            <g id="ic_landing_nubi" transform="translate(315.000000, 1564.000000)">
                <g id="Group-3" transform="translate(0.000000, 12.796617)">
                    <mask id="mask-2" fill="white">
                        <use xlink:href="#path-1"></use>
                    </mask>
                    <g id="Clip-2"></g>
                    <path d="M10.492724,0.360519276 C10.2996728,0.328025177 10.1071795,0.300487805 9.91468625,0.281211644 C9.30093962,0.217875688 8.6905407,0.221730921 8.08460539,0.304343037 C4.48247062,0.795609756 2.52461887,2.75957514 1.51695849,4.32039339 C0.00714177898,6.65831629 -0.403510512,9.65988985 0.409982749,12.3712195 C0.467451752,12.4626436 0.527152561,12.5513139 0.585737466,12.640535 C0.645438275,12.7303068 0.703465229,12.8217309 0.764281941,12.9092998 C0.832352022,13.0073328 0.902653908,13.1009599 0.972397844,13.1956884 C1.03544636,13.281605 1.09793693,13.3697246 1.1626593,13.4534382 C1.23184528,13.5432101 1.30382102,13.6285759 1.37523881,13.715594 C1.44275094,13.7982061 1.50914717,13.8824705 1.5777752,13.9623289 C1.64751914,14.0432887 1.72005283,14.1192919 1.79147062,14.197498 C1.86400431,14.2773564 1.93598005,14.3594178 2.0101876,14.4365224 C2.07993154,14.5086703 2.15190728,14.5758615 2.22220916,14.6452557 C2.30088032,14.7218096 2.37843558,14.8011172 2.45822264,14.8743666 C2.52740863,14.9382533 2.59826846,14.9966326 2.6680124,15.0572148 C2.75282102,15.1310149 2.83651375,15.2070181 2.92243827,15.276963 C2.9888345,15.331487 3.05746253,15.3805035 3.12441671,15.4322738 C3.21647871,15.5033202 3.30798275,15.5765696 3.4017186,15.6437608 C3.46365121,15.6878206 3.52725768,15.7269237 3.58974825,15.7693312 C3.69129542,15.8387254 3.79228464,15.9092211 3.89606361,15.9736585 C3.94460539,16.0039496 3.99482102,16.0298348 4.04392075,16.0595751 C4.47744906,16.3173249 4.9266,16.5370732 5.39081563,16.7144138 C5.41257574,16.7226751 5.43321995,16.7325885 5.45498005,16.7408497 C5.57717143,16.786011 5.70103666,16.8245633 5.82490189,16.8642172 C5.88516065,16.8834933 5.94374555,16.906074 6.00400431,16.9236979 C6.11950027,16.9578442 6.23667008,16.9853816 6.35328194,17.0145712 C6.42414178,17.0321951 6.49444367,17.0531235 6.56641941,17.0690952 C6.67968356,17.0944296 6.79517951,17.1137057 6.91011752,17.1346341 C6.98711482,17.1484028 7.06299623,17.165476 7.14055148,17.1770417 C7.25604744,17.1946656 7.37321725,17.2062313 7.49038706,17.2194493 C7.56905822,17.2282612 7.64661348,17.2403777 7.72640054,17.2469866 C7.84636011,17.2574508 7.96855148,17.2613061 8.09018491,17.2673643 C8.17108787,17.2706688 8.25143288,17.2778285 8.33345175,17.27893 C8.36023342,17.2800315 8.38645714,17.2800315 8.41323881,17.2800315 C8.47070782,17.2805822 8.52761887,17.27893 8.58508787,17.27893 C8.85736819,17.2772777 9.13188032,17.265712 9.40806631,17.2420299 C9.42592075,17.2403777 9.4437752,17.2381747 9.4610717,17.2365224 C13.9788049,16.8212589 18.9322981,13.4501338 22.7486863,8.14753737 C22.752034,8.14313139 22.7553817,8.13872541 22.7587294,8.13376869 C22.6605299,8.04730134 22.5623305,7.95973249 22.4646889,7.87326515 C22.4139154,7.8286546 22.3631418,7.78349331 22.3123682,7.73888277 C22.1003466,7.55162864 21.889441,7.36767899 21.6790933,7.18483084 C18.2744733,4.22291109 15.0796431,1.76217152 12.01091,0.742738002 C11.9484194,0.721809599 11.8859288,0.703634933 11.8234383,0.684358773 C11.6275973,0.622675059 11.4323143,0.567049567 11.2370313,0.517482297 C11.0685299,0.475625492 10.8994706,0.435420928 10.7315272,0.402926829 C10.6517402,0.386955153 10.5719531,0.374287962 10.492724,0.360519276" id="Fill-1" fill="#4E9DE8" mask="url(#mask-2)"></path>
                </g>
                <g id="Group-6" transform="translate(11.159030, 0.129426)">
                    <mask id="mask-4" fill="white">
                        <use xlink:href="#path-3"></use>
                    </mask>
                    <g id="Clip-5"></g>
                    <path d="M1.24015876,7.78756884 C0.696156065,8.90448466 0.292199191,10.0351692 0.034983558,11.1592447 C0.0439107817,11.1608969 0.0533959569,11.1636507 0.0628811321,11.1653029 C0.281040162,11.204406 0.499199191,11.2517703 0.717916173,11.304642 C0.801608895,11.3244689 0.885301617,11.3464988 0.96899434,11.3685287 C1.10569245,11.404878 1.24239057,11.4439811 1.37908868,11.4858379 C1.57995121,11.5458694 1.78081375,11.6125098 1.98167628,11.6835563 C2.03802938,11.7039339 2.09438248,11.7226593 2.15073558,11.7441385 C5.45380836,12.9596381 8.75520728,15.563572 12.2736493,18.6488592 C12.4164849,18.7744296 12.5598784,18.9 12.703272,19.0266719 C12.7529296,19.070181 12.8014714,19.1125885 12.8511291,19.1566483 C12.8896278,19.1004721 12.9281264,19.0464988 12.9660671,18.9903226 C13.1250833,18.7573564 13.2846574,18.527144 13.4442315,18.2996853 C13.4972369,18.2236821 13.5502423,18.1471282 13.6038057,18.0716758 C17.1428919,13.0648308 20.7851992,9.38253344 24.4966925,7.04956727 C24.2545415,6.63650669 23.9906305,6.23280881 23.7060752,5.84398112 C21.0546898,2.2184107 16.1190509,0.0611329662 11.4305846,0.470889064 C6.96529892,0.863021243 3.34586765,3.46144768 1.24015876,7.78756884" id="Fill-4" fill="#4E9DE8" mask="url(#mask-4)"></path>
                </g>
                <g id="Group-9" transform="translate(6.137466, 6.187648)">
                    <mask id="mask-6" fill="white">
                        <use xlink:href="#path-5"></use>
                    </mask>
                    <g id="Clip-8"></g>
                    <path d="M21.7054286,27.3545791 C28.4120054,27.2950983 38.8484879,27.5374272 38.9533827,27.5374272 L38.9611941,27.5374272 C45.3597817,27.5374272 48.7420836,24.4592998 50.4527628,22.0299528 C52.9998113,18.4126436 53.6152318,13.2526908 52.0211644,9.02515342 C49.748628,2.9988749 43.3394394,-0.614579072 36.7790458,0.496278521 C34.7464286,0.840495673 32.6926092,1.62476003 30.6438113,2.87165224 C30.5874582,2.90579858 30.5316631,2.93113297 30.4758679,2.96583006 C30.3224313,3.06055862 30.1695526,3.15253344 30.0161159,3.25276947 C29.9659003,3.28581432 29.9151267,3.31830842 29.8643531,3.35190401 C29.5903989,3.53420142 29.3164447,3.72365854 29.0430485,3.92137687 C28.9677251,3.97590087 28.8924016,4.02877262 28.8176361,4.08439811 C28.680938,4.18518489 28.5442399,4.28927616 28.4075418,4.39391817 C28.3271968,4.45560189 28.2468518,4.5183871 28.1670647,4.58117231 C28.025345,4.69297404 27.8836253,4.80422502 27.7424636,4.91988198 C27.7195876,4.9386074 27.6972695,4.95788356 27.6743935,4.97660897 C27.3429704,5.2497797 27.0115472,5.53396538 26.6806819,5.83026751 C26.6499946,5.85780488 26.6187493,5.88534225 26.588062,5.91287962 C26.4178868,6.06653816 26.2482695,6.22295043 26.0780943,6.38211644 C26.0546604,6.40469709 26.0306685,6.42727773 26.0066765,6.44985838 C24.7267358,7.65874902 23.4546065,9.0400236 22.1964259,10.5876239 C22.1757817,10.613509 22.1545795,10.6388434 22.1333774,10.6647286 C21.9643181,10.8740126 21.7952588,11.0860504 21.6261995,11.3008419 C21.6027655,11.331133 21.5798895,11.3614241 21.5558976,11.3911644 C21.2356334,11.8014713 20.9164852,12.2227931 20.5984528,12.6540283 C20.5677655,12.6958851 20.5365202,12.7366404 20.5058329,12.7784972 C20.3730404,12.9596932 20.240248,13.1441935 20.1080135,13.3292447 C20.0226469,13.4487569 19.9372803,13.5682691 19.8519137,13.6894335 C19.7308383,13.860716 19.6092049,14.0330999 19.4886873,14.2076869 C19.3804447,14.3640991 19.2733181,14.5227144 19.1656334,14.6813297 C19.1232291,14.7435641 19.0808248,14.8057986 19.0384205,14.868033 L19.0400943,14.8691345 L18.6612453,15.4204327 L18.6512022,15.4342014 C18.5915013,15.5212195 18.5329164,15.6076869 18.4726577,15.6936035 L18.1618787,16.1446656 L18.1529515,16.1319984 C13.7925606,22.1279858 7.99767655,25.7706294 2.75962803,25.7706294 C2.69490566,25.7706294 2.63074124,25.8383714 2.56657682,25.8372699 C2.55095418,25.8367191 2.53533154,25.8851849 2.51970889,25.8851849 L2.49906469,25.8851849 C2.47339892,25.8851849 2.44884906,25.8317624 2.42318329,25.8306609 C2.22845822,25.8251534 2.03540701,25.8080803 1.84402965,25.7921086 C1.78209704,25.7871518 1.72128032,25.7574115 1.65990566,25.7513533 C1.50200539,25.7353816 1.34466307,25.7067427 1.18899461,25.6841621 C1.11478706,25.6731471 1.04169542,25.6549725 0.968603774,25.6423053 C0.826326146,25.6186231 0.68516442,25.5899843 0.545118598,25.5602439 C0.467563342,25.5442722 0.390566038,25.5249961 0.313568733,25.5068214 C0.245498652,25.4908497 0.17687062,25.5519827 0.109358491,25.5349095 C4.0468221,27.1375846 10.4911617,27.4537136 21.7054286,27.3545791" id="Fill-7" fill="#4E9DE8" mask="url(#mask-6)"></path>
                </g>
            </g>
        </g>
    </g>
</svg>