<?xml version="1.0" encoding="UTF-8" standalone="no"?>
<svg width="61px" height="61px" viewBox="0 0 61 61" version="1.1" xmlns="http://www.w3.org/2000/svg" xmlns:xlink="http://www.w3.org/1999/xlink">
    <!-- Generator: Sketch 41.2 (35397) - http://www.bohemiancoding.com/sketch -->
    <title>ic_landing_porcentaje</title>
    <desc>Created with Sketch.</desc>
    <defs></defs>
    <g id="LANDING-V2" stroke="none" stroke-width="1" fill="none" fill-rule="evenodd">
        <g id="Propuesta-1---it2-Copy-2" transform="translate(-351.000000, -2063.000000)">
            <g id="ic_landing_porcentaje" transform="translate(353.000000, 2065.000000)">
                <path d="M33.5625,37.09375 C33.5625,38.4893125 34.6981875,39.625 36.09375,39.625 C37.4893125,39.625 38.625,38.4893125 38.625,37.09375 C38.625,35.6981875 37.4893125,34.5625 36.09375,34.5625 C34.6981875,34.5625 33.5625,35.6981875 33.5625,37.09375 Z M30.1875,37.09375 C30.1875,33.836875 32.836875,31.1875 36.09375,31.1875 C39.350625,31.1875 42,33.836875 42,37.09375 C42,40.350625 39.350625,43 36.09375,43 C32.836875,43 30.1875,40.350625 30.1875,37.09375 Z M18.375,21.90625 C18.375,23.3018125 19.5106875,24.4375 20.90625,24.4375 C22.3018125,24.4375 23.4375,23.3018125 23.4375,21.90625 C23.4375,20.5106875 22.3018125,19.375 20.90625,19.375 C19.5106875,19.375 18.375,20.5106875 18.375,21.90625 Z M15,21.90625 C15,18.649375 17.649375,16 20.90625,16 C24.163125,16 26.8125,18.649375 26.8125,21.90625 C26.8125,25.163125 24.163125,27.8125 20.90625,27.8125 C17.649375,27.8125 15,25.163125 15,21.90625 Z M17.1819375,40.8180625 C16.522125,40.15825 16.522125,39.09175 17.1819375,38.4319375 L37.4319375,18.1819375 C38.09175,17.522125 39.15825,17.522125 39.8180625,18.1819375 C40.477875,18.84175 40.477875,19.90825 39.8180625,20.5680625 L19.5680625,40.8180625 C19.239,41.147125 18.807,41.3125 18.375,41.3125 C17.943,41.3125 17.511,41.147125 17.1819375,40.8180625 Z" id="Page-1" fill="#54FFC8"></path>
                <circle id="Oval-10" stroke="#54FFC8" stroke-width="4" cx="28.5" cy="28.5" r="28.5"></circle>
            </g>
        </g>
    </g>
</svg>