<?xml version="1.0" encoding="UTF-8" standalone="no"?>
<svg width="74px" height="58px" viewBox="0 0 74 58" version="1.1" xmlns="http://www.w3.org/2000/svg" xmlns:xlink="http://www.w3.org/1999/xlink">
    <!-- Generator: Sketch 41.2 (35397) - http://www.bohemiancoding.com/sketch -->
    <title>ic_landing_tiempo</title>
    <desc>Created with Sketch.</desc>
    <defs></defs>
    <g id="LANDING-V2" stroke="none" stroke-width="1" fill="none" fill-rule="evenodd">
        <g id="Propuesta-1---it2-Copy-2" transform="translate(-677.000000, -2065.000000)" fill="#54FFC8">
            <g id="ic_landing_tiempo" transform="translate(677.000000, 2065.000000)">
                <path d="M44.8026471,8.09264151 C43.6763235,8.09264151 42.7622059,9.01188679 42.7622059,10.1445283 L42.7622059,29.5373208 L51.6781176,36.8048302 C52.0557353,37.1145283 52.5095294,37.2644528 52.9611471,37.2644528 C53.5542353,37.2644528 54.1440588,37.0061887 54.5477941,36.5060755 C55.2562353,35.6229434 55.1212941,34.3349057 54.2474412,33.6181132 L46.8430882,27.5817358 L46.8430882,10.1445283 C46.8430882,9.01188679 45.9300588,8.09264151 44.8026471,8.09264151" id="Fill-1"></path>
                <path d="M16.9590588,41.7775094 L33.5611765,41.7775094 C34.6875,41.7775094 35.6016176,40.8582642 35.6016176,39.7256226 C35.6016176,38.5929811 34.6875,37.6737358 33.5611765,37.6737358 L16.9590588,37.6737358 C15.8327353,37.6737358 14.9186176,38.5929811 14.9186176,39.7256226 C14.9186176,40.8582642 15.8327353,41.7775094 16.9590588,41.7775094" id="Fill-3"></path>
                <path d="M42.7622059,48.8458491 C42.7622059,49.9784906 43.6763235,50.8977358 44.8026471,50.8977358 C45.9289706,50.8977358 46.8430882,49.9784906 46.8430882,48.8458491 L46.8430882,48.6171321 C46.8430882,47.4844906 45.9289706,46.5652453 44.8026471,46.5652453 C43.6763235,46.5652453 42.7622059,47.4844906 42.7622059,48.6171321 L42.7622059,48.8458491 Z" id="Fill-5"></path>
                <path d="M65.6586765,30.6097736 C66.785,30.6097736 67.6991176,29.6905283 67.6991176,28.5578868 C67.6991176,27.4252453 66.785,26.506 65.6586765,26.506 L65.4323235,26.506 C64.306,26.506 63.3918824,27.4252453 63.3918824,28.5578868 C63.3918824,29.6905283 64.306,30.6097736 65.4323235,30.6097736 L65.6586765,30.6097736 Z" id="Fill-7"></path>
                <path d="M16.6728529,32.4843774 C16.8132353,33.5119623 17.6903529,34.2583019 18.6915294,34.2583019 C18.7840294,34.2583019 18.8797941,34.2495472 18.9733824,34.2364151 C20.0888235,34.0821132 20.8701765,33.0457736 20.7167353,31.9240755 C20.6155294,31.1908679 20.5622059,30.4445283 20.5273824,29.6949057 L28.4921765,29.6949057 C29.6185,29.6949057 30.5326176,28.7756604 30.5326176,27.6430189 C30.5326176,26.5103774 29.6185,25.5911321 28.4921765,25.5911321 L2.04044118,25.5911321 C0.914117647,25.5911321 0,26.5103774 0,27.6430189 C0,28.7756604 0.914117647,29.6949057 2.04044118,29.6949057 L16.4454118,29.6949057 C16.4813235,30.6327547 16.5477059,31.5673208 16.6728529,32.4843774" id="Fill-9"></path>
                <path d="M44.8026471,57.1135849 C60.4623529,57.1135849 73.2012353,44.3043396 73.2012353,28.5578868 C73.2012353,12.811434 60.4623529,0 44.8026471,0 C34.8931765,0 25.9195882,5.07445283 20.7493824,13.394717 C20.6677647,13.3859623 20.5850588,13.3695472 20.498,13.3695472 L10.3034118,13.3695472 C9.17708824,13.3695472 8.26297059,14.2887925 8.26297059,15.421434 C8.26297059,16.5562642 9.17708824,17.4733208 10.3034118,17.4733208 L18.6915294,17.4733208 L17.8807941,19.1772075 C17.3954412,20.2015094 17.8252941,21.4260755 18.8427941,21.9130566 C19.1279118,22.0498491 19.4271765,22.1144151 19.7231765,22.1144151 C20.4827647,22.1144151 21.2129706,21.6843396 21.5633824,20.9478491 L23.1184706,17.6757736 C23.1892059,17.5280377 23.2349118,17.3770189 23.2675588,17.2249057 C27.4866471,9.12241509 35.6821471,4.10596226 44.8037353,4.10596226 C58.2118824,4.10596226 69.1214412,15.076717 69.1214412,28.5600755 C69.1214412,42.043434 58.2118824,53.0098113 44.8026471,53.0098113 C38.1448235,53.0098113 31.9277353,50.3549434 27.3016471,45.5354717 C26.5181176,44.7169057 25.2242059,44.6950189 24.4167353,45.4840377 C23.6070882,46.2708679 23.5820588,47.5698491 24.3666765,48.3840377 C29.7675882,54.0144151 37.0261176,57.1135849 44.8026471,57.1135849" id="Fill-11"></path>
                <path d="M7.28029412,37.6737358 C6.15397059,37.6737358 5.23985294,38.5929811 5.23985294,39.7256226 C5.23985294,40.8582642 6.15397059,41.7775094 7.28029412,41.7775094 L9.32073529,41.7775094 C10.4470588,41.7775094 11.3611765,40.8582642 11.3611765,39.7256226 C11.3611765,38.5929811 10.4470588,37.6737358 9.32073529,37.6737358 L7.28029412,37.6737358 Z" id="Fill-13"></path>
            </g>
        </g>
    </g>
</svg>