<?xml version="1.0" encoding="UTF-8"?>
<svg width="22px" height="22px" viewBox="0 0 22 22" version="1.1" xmlns="http://www.w3.org/2000/svg" xmlns:xlink="http://www.w3.org/1999/xlink">
    <!-- Generator: Sketch 41.2 (35397) - http://www.bohemiancoding.com/sketch -->
    <title>ic_navbar_calculator</title>
    <desc>Created with Sketch.</desc>
    <defs></defs>
    <g id="Symbols" stroke="none" stroke-width="1" fill="none" fill-rule="evenodd">
        <g id="ic_navbar_calculator" stroke-width="0.2" stroke="#499BEB" fill="#499BEB">
            <g id="calculator-1" transform="translate(3.000000, 1.000000)">
                <g id="Layer_1">
                    <path d="M13.2069976,0 L2.06231099,0 C0.93957941,0 0.0261645965,0.916538612 0.0261645965,2.04310984 L0.0261645965,11.7382458 C0.0261645965,11.9338347 0.184186035,12.0924364 0.379148067,12.0924364 C0.574110098,12.0924364 0.732131537,11.9338746 0.732131537,11.7382458 L0.732131537,2.04310984 C0.732131537,1.30711788 1.32886725,0.708341386 2.06235076,0.708341386 L13.2070374,0.708341386 C13.9404811,0.708341386 14.5372566,1.30711788 14.5372566,2.04310984 L14.5372566,18.3856345 C14.5372566,19.1216264 13.9405209,19.7204029 13.2070374,19.7204029 L2.06231099,19.7204029 C1.32886725,19.7204029 0.732091773,19.1216264 0.732091773,18.3856345 L0.732091773,12.9188414 C0.732091773,12.7232525 0.574070335,12.5646507 0.379108303,12.5646507 C0.184146271,12.5646507 0.0261248327,12.7232126 0.0261248327,12.9188414 L0.0261248327,18.3855946 C0.0261248327,19.5121658 0.939539646,20.4287044 2.06227123,20.4287044 L13.2069579,20.4287044 C14.3296497,20.4287044 15.2431043,19.5121658 15.2431043,18.3855946 L15.2431043,2.04310984 C15.2431043,0.916538612 14.3296894,0 13.2069976,0 Z" id="Shape"></path>
                    <path d="M12.4543082,1.91247785 L11.4939721,1.91247785 C11.2990498,1.91247785 11.1409886,2.07103971 11.1409886,2.2666685 C11.1409886,2.46229728 11.29901,2.62085914 11.4939721,2.62085914 L12.4543082,2.62085914 C12.6576604,2.62085914 12.8230779,2.78688226 12.8230779,2.99092991 L12.8230779,5.7924155 C12.8230779,5.99646314 12.6576604,6.16244637 12.4543082,6.16244637 L2.81496067,6.16244637 C2.61160847,6.16244637 2.44619096,5.99646314 2.44619096,5.7924155 L2.44619096,2.99092991 C2.44619096,2.78688226 2.61160847,2.62085914 2.81496067,2.62085914 L10.3174003,2.62085914 C10.5123225,2.62085914 10.6703837,2.46229728 10.6703837,2.2666685 C10.6703837,2.07103971 10.5123623,1.91247785 10.3174003,1.91247785 L2.81496067,1.91247785 C2.22232062,1.91247785 1.74022402,2.39630299 1.74022402,2.99089001 L1.74022402,5.7923756 C1.74022402,6.38704242 2.22236039,6.87078775 2.81496067,6.87078775 L12.4543082,6.87078775 C13.0469482,6.87078775 13.5290448,6.38700252 13.5290448,5.7923756 L13.5290448,2.99092991 C13.5290448,2.39626309 13.0469085,1.91247785 12.4543082,1.91247785 Z" id="Shape"></path>
                    <path d="M13.5290448,8.89745887 C13.5290448,8.36579386 13.098005,7.93327988 12.5681918,7.93327988 L10.9574388,7.93327988 C10.4276653,7.93327988 9.99658572,8.36579386 9.99658572,8.89745887 L9.99658572,10.2275191 C9.99658572,10.7591842 10.4276256,11.1916981 10.9574388,11.1916981 L12.5681918,11.1916981 C13.0979652,11.1916981 13.5290448,10.7591842 13.5290448,10.2275191 L13.5290448,8.89745887 L13.5290448,8.89745887 Z M12.8230779,10.2274792 C12.8230779,10.3685251 12.7087171,10.483277 12.5681918,10.483277 L10.9574388,10.483277 C10.8169134,10.483277 10.7025527,10.3685251 10.7025527,10.2274792 L10.7025527,8.89741897 C10.7025527,8.75637313 10.8169134,8.64162127 10.9574388,8.64162127 L12.5681918,8.64162127 C12.7087171,8.64162127 12.8230779,8.75637313 12.8230779,8.89741897 L12.8230779,10.2274792 Z" id="Shape"></path>
                    <path d="M9.40088386,8.89745887 C9.40088386,8.36579386 8.96984401,7.93327988 8.44003081,7.93327988 L6.82927781,7.93327988 C6.29946461,7.93327988 5.86842475,8.36579386 5.86842475,8.89745887 L5.86842475,10.2275191 C5.86842475,10.7591842 6.29946461,11.1916981 6.82927781,11.1916981 L8.44003081,11.1916981 C8.96980424,11.1916981 9.40088386,10.7591842 9.40088386,10.2275191 L9.40088386,8.89745887 L9.40088386,8.89745887 Z M8.69491692,10.2274792 C8.69491692,10.3685251 8.58055616,10.483277 8.44003081,10.483277 L6.82927781,10.483277 C6.68875245,10.483277 6.57439169,10.3685251 6.57439169,10.2274792 L6.57439169,8.89741897 C6.57439169,8.75637313 6.68875245,8.64162127 6.82927781,8.64162127 L8.44003081,8.64162127 C8.58055616,8.64162127 8.69491692,8.75637313 8.69491692,8.89741897 L8.69491692,10.2274792 Z" id="Shape"></path>
                    <path d="M4.31183008,7.93323998 L2.70107707,7.93323998 C2.17130364,7.93323998 1.74022402,8.36575396 1.74022402,8.89741897 L1.74022402,10.2274792 C1.74022402,10.7591443 2.17126387,11.1916582 2.70107707,11.1916582 L4.31183008,11.1916582 C4.84164327,11.1916582 5.27268313,10.7591443 5.27268313,10.2274792 L5.27268313,8.89741897 C5.27264337,8.36575396 4.84160351,7.93323998 4.31183008,7.93323998 Z M4.56671619,10.2275191 C4.56671619,10.368565 4.45235543,10.4833169 4.31183008,10.4833169 L2.70107707,10.4833169 C2.56055172,10.4833169 2.44619096,10.368565 2.44619096,10.2275191 L2.44619096,8.89745887 C2.44619096,8.75641303 2.56055172,8.64166117 2.70107707,8.64166117 L4.31183008,8.64166117 C4.45235543,8.64166117 4.56671619,8.75641303 4.56671619,8.89745887 L4.56671619,10.2275191 Z" id="Shape"></path>
                    <path d="M13.5290448,12.686784 C13.5290448,12.155119 13.098005,11.7226051 12.5681918,11.7226051 L10.9574388,11.7226051 C10.4276653,11.7226051 9.99658572,12.155119 9.99658572,12.686784 L9.99658572,14.0168443 C9.99658572,14.5484295 10.4276256,14.9809834 10.9574388,14.9809834 L12.5681918,14.9809834 C13.0979652,14.9809834 13.5290448,14.5484694 13.5290448,14.0168443 L13.5290448,12.686784 L13.5290448,12.686784 Z M12.8230779,14.0168443 C12.8230779,14.1578503 12.7087171,14.2726021 12.5681918,14.2726021 L10.9574388,14.2726021 C10.8169134,14.2726021 10.7025527,14.1578503 10.7025527,14.0168443 L10.7025527,12.686784 C10.7025527,12.5457382 10.8169134,12.4309863 10.9574388,12.4309863 L12.5681918,12.4309863 C12.7087171,12.4309863 12.8230779,12.5457382 12.8230779,12.686784 L12.8230779,14.0168443 Z" id="Shape"></path>
                    <path d="M9.40088386,12.686784 C9.40088386,12.155119 8.96984401,11.7226051 8.44003081,11.7226051 L6.82927781,11.7226051 C6.29946461,11.7226051 5.86842475,12.155119 5.86842475,12.686784 L5.86842475,14.0168443 C5.86842475,14.5484295 6.29946461,14.9809834 6.82927781,14.9809834 L8.44003081,14.9809834 C8.96980424,14.9809834 9.40088386,14.5484694 9.40088386,14.0168443 L9.40088386,12.686784 L9.40088386,12.686784 Z M8.69491692,14.0168443 C8.69491692,14.1578503 8.58055616,14.2726021 8.44003081,14.2726021 L6.82927781,14.2726021 C6.68875245,14.2726021 6.57439169,14.1578503 6.57439169,14.0168443 L6.57439169,12.686784 C6.57439169,12.5457382 6.68875245,12.4309863 6.82927781,12.4309863 L8.44003081,12.4309863 C8.58055616,12.4309863 8.69491692,12.5457382 8.69491692,12.686784 L8.69491692,14.0168443 Z" id="Shape"></path>
                    <path d="M4.31183008,11.7226051 L2.70107707,11.7226051 C2.17130364,11.7226051 1.74022402,12.155119 1.74022402,12.686784 L1.74022402,14.0168443 C1.74022402,14.5484295 2.17126387,14.9809834 2.70107707,14.9809834 L4.31183008,14.9809834 C4.84164327,14.9809834 5.27268313,14.5484694 5.27268313,14.0168443 L5.27268313,12.686784 C5.27264337,12.155119 4.84160351,11.7226051 4.31183008,11.7226051 Z M4.56671619,14.0168443 C4.56671619,14.1578503 4.45235543,14.2726021 4.31183008,14.2726021 L2.70107707,14.2726021 C2.56055172,14.2726021 2.44619096,14.1578503 2.44619096,14.0168443 L2.44619096,12.686784 C2.44619096,12.5457382 2.56055172,12.4309863 2.70107707,12.4309863 L4.31183008,12.4309863 C4.45235543,12.4309863 4.56671619,12.5457382 4.56671619,12.686784 L4.56671619,14.0168443 Z" id="Shape"></path>
                    <path d="M12.5681918,15.5119701 L10.9574388,15.5119701 C10.4276653,15.5119701 9.99658572,15.9444841 9.99658572,16.4761491 L9.99658572,17.8062094 C9.99658572,18.3378744 10.4276256,18.7703884 10.9574388,18.7703884 L12.5681918,18.7703884 C13.0979652,18.7703884 13.5290448,18.3378744 13.5290448,17.8062094 L13.5290448,16.4761491 C13.5290448,15.944524 13.098005,15.5119701 12.5681918,15.5119701 Z M12.8230779,17.8062094 C12.8230779,17.9472552 12.7087171,18.0620071 12.5681918,18.0620071 L10.9574388,18.0620071 C10.8169134,18.0620071 10.7025527,17.9472552 10.7025527,17.8062094 L10.7025527,16.4761491 C10.7025527,16.3351033 10.8169134,16.2203514 10.9574388,16.2203514 L12.5681918,16.2203514 C12.7087171,16.2203514 12.8230779,16.3351033 12.8230779,16.4761491 L12.8230779,17.8062094 Z" id="Shape"></path>
                    <path d="M9.04790039,16.1219984 C8.85297813,16.1219984 8.69491692,16.2805602 8.69491692,16.476189 L8.69491692,17.8062493 C8.69491692,17.9472951 8.58055616,18.062047 8.44003081,18.062047 L6.82927781,18.062047 C6.68875245,18.062047 6.57439169,17.9472951 6.57439169,17.8062493 L6.57439169,16.476189 C6.57439169,16.3351432 6.68871269,16.2203913 6.82927781,16.2203913 L8.1682053,16.2203913 C8.36312757,16.2203913 8.52118877,16.0618295 8.52118877,15.8662007 C8.52118877,15.6705719 8.36316734,15.51201 8.1682053,15.51201 L6.82927781,15.51201 C6.29946461,15.51201 5.86842475,15.944524 5.86842475,16.476189 L5.86842475,17.8062493 C5.86842475,18.3379143 6.29946461,18.7704283 6.82927781,18.7704283 L8.44003081,18.7704283 C8.96980424,18.7704283 9.40088386,18.3379143 9.40088386,17.8062493 L9.40088386,16.476189 C9.40088386,16.2805602 9.24282266,16.1219984 9.04790039,16.1219984 Z" id="Shape"></path>
                    <path d="M4.31183008,15.5119302 L2.70107707,15.5119302 C2.17130364,15.5119302 1.74022402,15.9444442 1.74022402,16.4761092 L1.74022402,17.8061695 C1.74022402,18.3378345 2.17126387,18.7703485 2.70107707,18.7703485 L4.31183008,18.7703485 C4.84164327,18.7703485 5.27268313,18.3378345 5.27268313,17.8061695 L5.27268313,16.4761092 C5.27264337,15.9444442 4.84160351,15.5119302 4.31183008,15.5119302 Z M4.56671619,17.8062493 C4.56671619,17.9472951 4.45235543,18.062047 4.31183008,18.062047 L2.70107707,18.062047 C2.56055172,18.062047 2.44619096,17.9472951 2.44619096,17.8062493 L2.44619096,16.476189 C2.44619096,16.3351432 2.56055172,16.2203913 2.70107707,16.2203913 L4.31183008,16.2203913 C4.45235543,16.2203913 4.56671619,16.3351432 4.56671619,16.476189 L4.56671619,17.8062493 Z" id="Shape"></path>
                    <path d="M11.993684,5.02917197 L10.4406283,5.02917197 C10.2457061,5.02917197 10.0876449,5.18773383 10.0876449,5.38336261 C10.0876449,5.5789515 10.2456663,5.73755326 10.4406283,5.73755326 L11.993684,5.73755326 C12.1886063,5.73755326 12.3466675,5.5789914 12.3466675,5.38336261 C12.3466675,5.18773383 12.1886461,5.02917197 11.993684,5.02917197 Z" id="Shape"></path>
                </g>
            </g>
        </g>
    </g>
</svg>