<?xml version="1.0" encoding="utf-8"?>
<!-- Generator: Adobe Illustrator 16.0.3, SVG Export Plug-In . SVG Version: 6.00 Build 0)  -->
<!DOCTYPE svg PUBLIC "-//W3C//DTD SVG 1.1//EN" "http://www.w3.org/Graphics/SVG/1.1/DTD/svg11.dtd">
<svg version="1.1" id="Layer_1" xmlns="http://www.w3.org/2000/svg" xmlns:xlink="http://www.w3.org/1999/xlink" x="0px" y="0px"
	 width="68px" height="13px" viewBox="0 0 68 13" enable-background="new 0 0 68 13" xml:space="preserve">
<title>ic_rapipago</title>
<desc>Created with Sketch.</desc>
<g id="calculadora_2" transform="translate(-525.000000, -323.000000)">
	<g id="ic_rapipago" transform="translate(525.000000, 323.000000)">
		<path id="Fill-1" fill="#23236A" d="M36.873,5.896l-0.762,1.758c0,0-0.146,0.478-0.879,0.478L33.504,8.07l1.113-2.83h1.875
			C36.492,5.24,37.019,5.24,36.873,5.896 M38.541,3.244l-7.115,0.03l-0.732,1.877h0.791c0,0,0.439,0.149,0.263,0.625l-2.722,6.913
			h2.693l1.055-2.592h3.25c0,0,1.58-0.031,2.459-1.58l1.464-3.695C39.946,4.823,40.416,3.571,38.541,3.244"/>
		<path id="Fill-3" fill="#23236A" d="M44.661,8.131h-1.962c0,0-0.41-0.061-0.205-0.775c0,0,0.615-2.145,1.494-2.205l1.728,0.06
			L44.661,8.131z M47.678,7.088l1.521-3.814h-5.622c0,0-2.254,0.238-2.87,1.729l-1.199,2.92c0,0-0.586,1.906,1.025,2.056h7.261
			l0.761-1.847C48.555,8.131,47.18,8.309,47.678,7.088z"/>
		<path id="Fill-5" fill="#23236A" d="M54.589,6.253l-2.028,1.309c-0.308,0.166-0.488-0.056-0.488-0.056l-0.815-0.939
			c-0.218-0.276,0.126-0.682,0.126-0.682l1.559-1.013C53.629,4.576,53.9,4.889,53.9,4.889l0.688,0.682
			C54.824,5.939,54.589,6.253,54.589,6.253 M57.414,5.258L56.418,4.17c-0.416-0.387,0.037-0.774,0.037-0.774l0.488-0.35l-1.25-1.364
			c-3.749,1.917-6.809,4.036-6.809,4.036c-0.58,0.719-0.037,1.548-0.037,1.548l2.373,2.507c0.234,0.682-0.453,0.829-0.453,0.829
			l-1.685-0.019l-0.833,1.861c0.435,0,3.007-0.037,3.007-0.037c2.336-1.197,2.988-2.156,2.988-2.156
			c0.416-0.59-0.019-1.197-0.019-1.197c-0.309-0.388,0.199-0.553,0.199-0.553C56.363,7.414,57.27,6.53,57.27,6.53
			C57.758,5.922,57.414,5.258,57.414,5.258"/>
		<path id="Fill-7" fill="#23236A" d="M64.477,6.854c-0.02,0.092-1.83,1.069-1.83,1.069C62.066,8.236,61.65,7.96,61.65,7.96
			c-0.29-0.165-0.869-0.885-0.869-0.885c-0.218-0.239,0.018-0.589,0.018-0.589c0.362-0.369,1.902-1.161,1.902-1.161
			c0.362-0.24,0.941,0.055,0.941,0.055l0.834,0.774C64.82,6.486,64.477,6.854,64.477,6.854 M67.482,5.491
			c0,0-2.029-2.046-2.518-2.249c0,0-1.087-0.498-2.137,0.019c0,0-3.188,1.622-4.674,2.635c0,0-0.922,0.719-0.578,1.641
			c0,0,1.883,2.23,2.462,2.507c0,0,0.725,0.516,1.992,0.129c0,0,3.622-1.419,5.435-3.17C67.465,7.002,68.008,6.375,67.482,5.491"/>
		<path id="Fill-9" fill="#E30613" d="M30.3,3.279H27.62c0,0-1.703,4.22-1.866,4.791c0,0-0.326,1.032,0.163,1.438
			c0,0,0.526,0.535,1.104,0.535l1.866-0.02l0.797-1.879h-0.597c0,0-0.688-0.147-0.399-0.811L30.3,3.279z"/>
		<g id="Group-13" transform="translate(27.612121, 0.250271)">
			<g id="Clip-12">
			</g>
			<defs>
				<filter id="Adobe_OpacityMaskFilter" filterUnits="userSpaceOnUse" x="0.333" y="0.169" width="3.05" height="2.221">
					<feColorMatrix  type="matrix" values="1 0 0 0 0  0 1 0 0 0  0 0 1 0 0  0 0 0 1 0"/>
				</filter>
			</defs>
			<mask maskUnits="userSpaceOnUse" x="0.333" y="0.169" width="3.05" height="2.221" id="mask-2">
				<g filter="url(#Adobe_OpacityMaskFilter)">
					<polygon id="path-1" fill="#FFFFFF" points="0.333,0.169 3.383,0.169 3.383,2.39 0.333,2.39 					"/>
				</g>
			</mask>
			<path id="Fill-11" mask="url(#mask-2)" fill="#E30613" d="M1.456,0.302c0,0,0.996-0.332,1.558,0.055c0,0,0.725,0.442,0.145,1.235
				c0,0-0.453,0.773-1.703,0.792c0,0-1.051,0.129-1.123-0.756C0.334,1.628,0.279,0.725,1.456,0.302"/>
		</g>
		<path id="Fill-14" fill="#E30613" d="M22.82,5.933c0,0.369-0.688,1.696-0.688,1.696c-0.344,0.479-0.906,0.479-0.906,0.479h-1.72
			l1.159-2.856h1.793C23.073,5.27,22.82,5.933,22.82,5.933 M25.591,3.703c0,0-0.362-0.406-1.268-0.479l-6.828,0.019l-0.707,1.917
			h0.58c0,0,0.634,0,0.272,0.939l-2.536,6.598l2.663,0.019l0.978-2.709l3.459,0.018c0,0,0.996,0.111,1.902-1.014
			c0,0,1.377-2.229,1.739-3.906C25.845,5.104,26.188,4.182,25.591,3.703"/>
		<path id="Fill-16" fill="#E30613" d="M12.17,8.07l-1.793,0.037c0,0-0.652-0.037-0.362-0.902c0,0,0.326-1.162,0.688-1.549
			c0,0,0.235-0.442,0.942-0.442l1.576,0.037L12.17,8.07z M15.213,7.02l1.503-3.777L11.32,3.224c-0.815,0-1.721,0.424-1.721,0.424
			C8.548,4.164,8.313,4.901,8.313,4.901C7.915,5.509,7.1,7.85,7.1,7.85c-0.471,1.16,0,1.566,0,1.566
			c0.453,0.645,1.322,0.627,1.322,0.627l6.918,0.018l0.761-1.861L15.25,8.053C14.833,7.85,15.213,7.02,15.213,7.02z"/>
		<g id="Group-20" transform="translate(0.000000, 3.185755)">
			<g id="Clip-19">
			</g>
			<defs>
				<filter id="Adobe_OpacityMaskFilter_1_" filterUnits="userSpaceOnUse" x="0" y="0.056" width="8.15" height="6.818">
					<feColorMatrix  type="matrix" values="1 0 0 0 0  0 1 0 0 0  0 0 1 0 0  0 0 0 1 0"/>
				</filter>
			</defs>
			<mask maskUnits="userSpaceOnUse" x="0" y="0.056" width="8.15" height="6.818" id="mask-4">
				<g filter="url(#Adobe_OpacityMaskFilter_1_)">
					<polygon id="path-3" fill="#FFFFFF" points="0,0.056 8.15,0.056 8.15,6.875 0,6.875 					"/>
				</g>
			</mask>
			<path id="Fill-18" mask="url(#mask-4)" fill="#E30613" d="M8.15,0.075L7.353,2.028H5.234c0,0-0.58-0.11-0.942,0.719L2.717,6.838
				L0,6.875l2.644-6.818L8.15,0.075z"/>
		</g>
	</g>
</g>
</svg>
