<?xml version="1.0" encoding="UTF-8" standalone="no"?>
<svg width="29px" height="20px" viewBox="0 0 29 20" version="1.1" xmlns="http://www.w3.org/2000/svg" xmlns:xlink="http://www.w3.org/1999/xlink" xmlns:sketch="http://www.bohemiancoding.com/sketch/ns">
    <!-- Generator: Sketch 3.3.3 (12081) - http://www.bohemiancoding.com/sketch -->
    <title>ic_send</title>
    <desc>Created with Sketch.</desc>
    <defs></defs>
    <g id="Page-1" stroke="none" stroke-width="1" fill="none" fill-rule="evenodd" sketch:type="MSPage">
        <path d="M4.98499485,10.3357274 L25.8385354,10.3357274 L1.81309709,18.2992154 L4.98499485,10.3357274 L4.98499485,10.3357274 Z M1.81309709,1.78735051 L25.8385354,9.75083848 L4.98499485,9.75083848 L1.81309709,1.78735051 L1.81309709,1.78735051 Z M1.31819106,1 C1.09323377,1 0.935763672,1.20246156 1.02574659,1.40492312 L4.44509736,10.043283 L1.02574659,18.6812679 C0.935763672,18.9066001 1.16072096,19.1540531 1.40817398,19.0640701 L27.7960387,10.3357274 C27.7960387,10.3132317 27.7960387,10.3132317 27.8185345,10.3132317 L27.8414051,10.3132317 L27.8414051,10.290736 L27.8639009,10.290736 L27.8863966,10.2682402 C27.9092673,10.2682402 27.9092673,10.2457445 27.9092673,10.2457445 C27.931763,10.2457445 27.931763,10.2232488 27.931763,10.2232488 L27.9546336,10.2007531 L27.9546336,10.1782573 C27.9771293,10.1782573 27.9771293,10.1557616 27.9771293,10.1557616 L27.9771293,10.1107701 C28,10.1107701 28,10.1107701 28,10.0882744 L28,10.0657787 L28,10.0207872 L28,9.99829151 L28,9.97579577 L27.9771293,9.95330005 L27.9771293,9.93080431 L27.9771293,9.90830859 C27.9771293,9.90830859 27.9546336,9.90830859 27.9546336,9.88581286 C27.9546336,9.88581286 27.9546336,9.86331713 27.931763,9.86331713 L27.931763,9.8408214 L27.9092673,9.8408214 L27.9092673,9.81832567 L27.8863966,9.81832567 C27.8863966,9.79582994 27.8863966,9.79582994 27.8639009,9.79582994 L27.8414051,9.77333422 L27.8185345,9.77333422 L27.7960387,9.75083848 L1.40817398,1.02249573 C1.36318252,1 1.34068679,1 1.31819106,1 L1.31819106,1 L1.31819106,1 Z" id="ic_send" stroke="#FFFFFF" fill="#FFFFFF" sketch:type="MSShapeGroup"></path>
    </g>
</svg>