<?xml version="1.0" encoding="UTF-8"?>
<svg width="287px" height="116px" viewBox="0 0 287 116" version="1.1" xmlns="http://www.w3.org/2000/svg" xmlns:xlink="http://www.w3.org/1999/xlink">
    <!-- Generator: Sketch 46.1 (44463) - http://www.bohemiancoding.com/sketch -->
    <title>img_steps_responsive_2</title>
    <desc>Created with Sketch.</desc>
    <defs>
        <polygon id="path-1" points="27.0545826 39.5384188 0 39.5384188 0 0 27.0545826 0 54.1091651 0 54.1091651 39.5384188 27.0545826 39.5384188"></polygon>
        <polygon id="path-3" points="42.8091383 12.6528411 42.8091383 0.268068668 21.4045864 0.268068668 3.44750065e-05 0.268068668 3.44750065e-05 12.6528411 42.8091383 12.6528411"></polygon>
    </defs>
    <g id="Symbols" stroke="none" stroke-width="1" fill="none" fill-rule="evenodd">
        <g id="img_steps_responsive_2">
            <g id="Group-7">
                <g id="Group-21-Copy-2" transform="translate(196.120260, 41.817143)">
                    <g id="ic_landing_cobro-copy" transform="translate(0.000000, 0.126535)">
                        <g id="Page-1">
                            <mask id="mask-2" fill="white">
                                <use xlink:href="#path-1"></use>
                            </mask>
                            <g id="Clip-2"></g>
                            <path d="M27.6789975,16.8642212 C26.5332229,16.8642212 25.6009717,17.7952659 25.6009717,18.9395576 L25.6009717,20.0910918 C25.6009717,21.2361882 26.5332229,22.1672329 27.6789975,22.1672329 L40.4211069,22.1672329 C41.5668815,22.1672329 42.4991327,21.2361882 42.4991327,20.0910918 L42.4991327,18.9395576 C42.4999384,17.7952659 41.5676872,16.8642212 40.4219126,16.8642212 L27.6789975,16.8642212 Z M18.8496036,14.0694776 L31.591713,14.0694776 C32.7374876,14.0694776 33.6697388,13.1384329 33.6697388,11.9933365 L33.6697388,10.8418024 C33.6697388,9.69751059 32.7374876,8.76646588 31.591713,8.76646588 L18.8496036,8.76646588 C17.7038291,8.76646588 16.7715778,9.69751059 16.7715778,10.8418024 L16.7715778,11.9933365 C16.7715778,13.1384329 17.7038291,14.0694776 18.8496036,14.0694776 L18.8496036,14.0694776 Z M27.6789975,5.30220706 L40.4211069,5.30220706 C41.5668815,5.30220706 42.4991327,4.37116235 42.4991327,3.22687059 L42.4991327,2.07533647 C42.4991327,0.931044706 41.5668815,0 40.4211069,0 L27.6789975,0 C26.5332229,0 25.6009717,0.931044706 25.6009717,2.07533647 L25.6009717,3.22687059 C25.6009717,4.37035765 26.5332229,5.30220706 27.6789975,5.30220706 L27.6789975,5.30220706 Z" id="Fill-1" fill="#214A60" mask="url(#mask-2)"></path>
                        </g>
                        <path d="M52.4171735,30.9690602 C51.828977,30.8926131 51.1658459,31.0205614 50.5985988,31.2265661 C47.1830302,32.4650084 43.9334459,33.9086508 40.5307693,35.1841096 C40.3631735,35.2468767 40.1681824,35.3176908 40.0594063,35.4464437 C39.1738885,36.4885378 38.0063587,36.909399 36.6986286,36.9254931 C34.5827326,36.950439 32.4668366,37.0212531 30.3509406,37.0711449 C28.9159023,37.1049426 27.4808639,37.141959 26.0458255,37.1677096 C25.6832386,37.1741473 25.2263791,36.7709896 25.2022067,36.3477143 C25.1780342,35.9236343 25.4681037,35.779592 25.8363309,35.7433802 C25.9829771,35.7288955 26.1296234,35.7184343 26.2770754,35.7144108 C28.0618087,35.6685426 29.8457362,35.6250884 31.6304695,35.5808296 C33.5070582,35.5341567 35.3852583,35.5212814 37.2594297,35.4295449 C38.569577,35.3651684 39.460735,34.3914743 39.4824902,33.1377426 C39.505857,31.7914696 38.4599952,30.7735167 37.0386545,30.800072 C34.9332333,30.8403073 32.2694282,30.5522226 30.1100218,30.2182696 C27.5412951,29.8207449 26.2915789,28.5074649 23.7993983,27.7075873 C19.9592001,26.4747778 16.0279524,26.9221943 12.063669,27.0034696 C12.0564172,26.7274555 12.0499713,26.4522461 12.0427195,26.176232 C12.0201586,25.3055402 11.5963348,24.9265237 10.71404,24.9466414 C8.39751257,24.999752 6.08098516,25.0560814 3.7652635,25.1132155 C3.62264599,25.1164343 3.48083422,25.1349426 3.22299465,25.1550602 C3.35191444,26.3878696 3.44054679,27.5901002 3.60975401,28.7802602 C4.24226671,33.2182131 5.79091564,37.3214084 8.21944211,41.0890414 C8.33063543,41.2612484 8.60942447,41.4165567 8.81408463,41.4221896 C9.60371832,41.443112 10.3949635,41.4069002 11.1854029,41.3795402 C11.9685906,41.3521802 12.3996662,40.9087873 12.381134,40.1121284 C12.3762995,39.8860061 12.3706592,39.6598837 12.365019,39.4345661 C12.3690477,39.4353708 12.371465,39.4369802 12.3754937,39.4377849 C14.1578098,39.9439449 15.9320683,40.479879 17.7119671,40.9940861 C21.0260114,41.9500767 24.3215234,42.9817096 27.6645746,43.8210178 C30.4379615,44.5170884 33.2339094,44.5991684 35.870319,43.1498931 C41.4557687,40.0791355 47.0452472,37.0164249 52.6258624,33.9368155 C52.9046515,33.7831167 53.1560451,33.530439 53.342173,33.2689096 C53.9722684,32.3764908 53.4976825,31.109079 52.4171735,30.9690602" id="Fill-1" fill="#214A60"></path>
                    </g>
                </g>
                <path d="M249.820455,50.867853 C249.820455,25.6836684 229.378183,5.26785298 204.161364,5.26785298 C178.944544,5.26785298 158.502273,25.6836684 158.502273,50.867853 C158.502273,67.4699222 169.668938,114.098143 176.891584,142.662332" id="Oval-4-Copy-28" stroke="#54FFC8" stroke-width="3" stroke-linecap="round" stroke-linejoin="round" transform="translate(204.161364, 73.965092) rotate(-300.000000) translate(-204.161364, -73.965092) "></path>
                <path d="M225.475495,64.6201019 C200.258676,64.6201019 179.816404,85.0359173 179.816404,110.220102" id="Oval-4-Copy-31" stroke="#54FFC8" stroke-width="3" stroke-linecap="round" stroke-linejoin="round" transform="translate(202.645950, 87.420102) scale(-1, -1) rotate(-277.000000) translate(-202.645950, -87.420102) "></path>
                <path d="M64.7572833,5.12136628 C35.3578238,5.12136628 11.5248529,28.9234931 11.5248529,58.2849046" id="Oval-4-Copy-39" stroke="#54FFC8" stroke-width="3" stroke-linecap="round" stroke-linejoin="round" transform="translate(38.141068, 31.703135) scale(-1, 1) rotate(-277.000000) translate(-38.141068, -31.703135) "></path>
                <path d="M118.3875,3.76247378 C93.1706804,3.76247378 72.7284091,24.1782892 72.7284091,49.3624738 C72.7284091,65.964543 83.8950746,112.592764 91.1177204,141.156953" id="Oval-4-Copy-32" stroke="#54FFC8" stroke-width="3" stroke-linecap="round" stroke-linejoin="round" transform="translate(95.557955, 72.459713) scale(-1, -1) rotate(-300.000000) translate(-95.557955, -72.459713) "></path>
                <path d="M88.7201377,74.4679013 C88.7201377,49.2837167 68.2778663,28.8679013 43.0610467,28.8679013 C17.8442271,28.8679013 -2.59804416,49.2837167 -2.59804416,74.4679013" id="Oval-4-Copy-34" stroke="#54FFC8" stroke-width="3" stroke-linecap="round" stroke-linejoin="round" transform="translate(43.061047, 51.667901) scale(-1, 1) rotate(-300.000000) translate(-43.061047, -51.667901) "></path>
                <g id="Group-22-Copy-2" transform="translate(42.183896, 45.074286)">
                    <g id="ic_landing_banco-copy" transform="translate(0.000000, 0.126535)">
                        <g id="Group-3" transform="translate(0.300766, 0.486818)">
                            <mask id="mask-4" fill="white">
                                <use xlink:href="#path-3"></use>
                            </mask>
                            <g id="Clip-2"></g>
                            <path d="M42.5916139,10.5082918 C40.730596,9.5075021 29.9939542,3.9316738 24.5540557,1.07227467 C22.5498825,1.40942813e-13 20.1878213,1.40942813e-13 18.1836482,1.07227467 C12.8153273,3.9316738 2.07868544,9.5075021 0.217667519,10.5082918 C0.0029346821,10.6512617 -0.0686429301,10.9372017 0.0745122943,11.1516566 C0.432400355,11.6520514 0.718710804,12.0809613 1.07659887,12.5098712 C1.21975409,12.6528411 1.50606454,12.6528411 1.64921976,12.6528411 L3.51023768,12.6528411 L13.6742586,12.6528411 L21.3330631,12.6528411 L28.9918676,12.6528411 L39.2990438,12.6528411 L41.1600617,12.6528411 C41.3747945,12.6528411 41.661105,12.6528411 41.7326826,12.5098712 C42.0905707,12.0809613 42.3768811,11.5805665 42.7347692,11.1516566 C42.8779244,10.9372017 42.8063468,10.5797768 42.5916139,10.5082918" id="Fill-1" fill="#214A60" mask="url(#mask-4)"></path>
                        </g>
                        <path d="M40.4586695,34.8710929 C40.0292038,34.8710929 39.7428934,34.5136681 39.7428934,34.1562432 L39.7428934,33.7273333 C39.7428934,33.2984234 39.3850053,33.0124835 39.0271172,33.0124835 L38.5260739,33.0124835 L30.6525366,33.0124835 L12.9728664,33.0124835 L5.02775144,33.0124835 L4.52670815,33.0124835 C4.09724248,33.0124835 3.81093203,33.3699084 3.81093203,33.7273333 L3.81093203,34.1562432 C3.81093203,34.585153 3.45304397,34.8710929 3.09515591,34.8710929 C2.66569023,34.8710929 2.37937978,35.2285178 2.37937978,35.5859427 L2.37937978,37.6590071 C2.37937978,38.087917 2.73726784,38.3738569 3.09515591,38.3738569 L40.4586695,38.3738569 C40.8881352,38.3738569 41.1744456,38.016432 41.1744456,37.6590071 L41.1744456,35.5859427 C41.1744456,35.2285178 40.8881352,34.8710929 40.4586695,34.8710929" id="Fill-4" fill="#214A60"></path>
                        <polygon id="Fill-6" fill="#214A60" points="6.81719174 31.7257539 10.8971156 31.7257539 10.8971156 14.4978742 6.81719174 14.4978742"></polygon>
                        <polygon id="Fill-8" fill="#214A60" points="19.6295843 31.7257539 23.7095082 31.7257539 23.7095082 14.4978742 19.6295843 14.4978742"></polygon>
                        <polygon id="Fill-9" fill="#214A60" points="32.5135545 31.7257539 36.5934784 31.7257539 36.5934784 14.4978742 32.5135545 14.4978742"></polygon>
                    </g>
                </g>
            </g>
        </g>
    </g>
</svg>