<?xml version="1.0" encoding="utf-8"?>
<!-- Generator: Adobe Illustrator 20.1.0, SVG Export Plug-In . SVG Version: 6.00 Build 0)  -->
<svg version="1.1" id="Layer_1" xmlns="http://www.w3.org/2000/svg" xmlns:xlink="http://www.w3.org/1999/xlink" x="0px" y="0px"
	 viewBox="0 0 215.6 85.7" style="enable-background:new 0 0 215.6 85.7;" xml:space="preserve">
<style type="text/css">
	.st0{fill:#009CDE;}
	.st1{fill:#003087;}
	.st2{fill:#012169;}
	.st3{fill:#777777;}
	.st4{fill:#FFFFFF;}
	.st5{opacity:0.75;fill:#4E9DE8;}
	.st6{fill:#5580FF;}
	.st7{opacity:0.75;fill:#28E5D7;}
	.st8{opacity:0.75;fill:url(#SVGID_1_);}
	.st9{opacity:0.49;fill:url(#SVGID_2_);}
</style>
<g>
	<g>
		<g>
			<path class="st0" d="M184.1,62.5l-4.5,0c-0.3,0-0.6,0.2-0.6,0.5l-1.9,11.4c0,0.2,0.1,0.4,0.4,0.4l2.3,0c0.2,0,0.4-0.2,0.4-0.4
				l0.5-3.2c0-0.3,0.3-0.5,0.6-0.5l1.4,0c2.9,0,4.6-1.4,5.1-4.2c0.2-1.2,0-2.2-0.6-2.9C186.7,62.9,185.6,62.5,184.1,62.5z
				 M184.6,66.7c-0.3,1.6-1.5,1.6-2.7,1.6l-0.7,0l0.5-3c0-0.2,0.2-0.3,0.4-0.3l0.3,0c0.8,0,1.6,0,2,0.5
				C184.6,65.7,184.7,66.1,184.6,66.7z"/>
			<path class="st1" d="M152.3,62.4l-4.5,0c-0.3,0-0.6,0.2-0.6,0.5l-1.9,11.4c0,0.2,0.1,0.4,0.4,0.4l2.1,0c0.3,0,0.6-0.2,0.6-0.5
				l0.5-3.1c0-0.3,0.3-0.5,0.6-0.5l1.4,0c2.9,0,4.6-1.4,5.1-4.2c0.2-1.2,0-2.2-0.6-2.9C154.9,62.8,153.8,62.4,152.3,62.4z
				 M152.8,66.6c-0.3,1.6-1.5,1.6-2.7,1.6l-0.7,0l0.5-3c0-0.2,0.2-0.3,0.4-0.3l0.3,0c0.8,0,1.6,0,2,0.5
				C152.8,65.6,152.9,66,152.8,66.6z"/>
			<path class="st1" d="M165.6,66.6l-2.1,0c-0.2,0-0.3,0.1-0.4,0.3l-0.1,0.6l-0.1-0.2c-0.5-0.7-1.5-0.9-2.5-0.9
				c-2.4,0-4.4,1.8-4.8,4.3c-0.2,1.3,0.1,2.4,0.8,3.3c0.6,0.8,1.6,1.1,2.7,1.1c1.9,0,3-1.2,3-1.2l-0.1,0.6c0,0.2,0.1,0.4,0.4,0.4
				l1.9,0c0.3,0,0.6-0.2,0.6-0.5L166,67C166,66.8,165.9,66.6,165.6,66.6z M162.6,70.7c-0.2,1.2-1.2,2-2.4,2c-0.6,0-1.1-0.2-1.4-0.6
				c-0.3-0.4-0.4-0.9-0.3-1.5c0.2-1.2,1.2-2,2.4-2c0.6,0,1.1,0.2,1.4,0.6C162.6,69.6,162.7,70.1,162.6,70.7z"/>
			<path class="st0" d="M197.4,66.7l-2.1,0c-0.2,0-0.3,0.1-0.4,0.3l-0.1,0.6l-0.1-0.2c-0.5-0.7-1.5-0.9-2.5-0.9
				c-2.4,0-4.4,1.8-4.8,4.3c-0.2,1.3,0.1,2.4,0.8,3.3c0.6,0.8,1.6,1.1,2.7,1.1c1.9,0,3-1.2,3-1.2l-0.1,0.6c0,0.2,0.1,0.4,0.4,0.4
				l1.9,0c0.3,0,0.6-0.2,0.6-0.5l1.2-7.3C197.8,66.9,197.7,66.7,197.4,66.7z M194.4,70.9c-0.2,1.2-1.2,2-2.4,2
				c-0.6,0-1.1-0.2-1.4-0.6c-0.3-0.4-0.4-0.9-0.3-1.5c0.2-1.2,1.2-2,2.4-2c0.6,0,1.1,0.2,1.4,0.6C194.4,69.7,194.5,70.3,194.4,70.9z
				"/>
			<path class="st1" d="M177,66.6l-2.1,0c-0.2,0-0.4,0.1-0.5,0.3l-3,4.3l-1.2-4.2c-0.1-0.3-0.3-0.4-0.6-0.4l-2.1,0
				c-0.3,0-0.4,0.2-0.4,0.5l2.3,6.9l-2.2,3.1c-0.2,0.2,0,0.6,0.3,0.6l2.1,0c0.2,0,0.4-0.1,0.5-0.3l7.2-10.3
				C177.5,67,177.3,66.6,177,66.6z"/>
			<path class="st0" d="M200,62.9l-1.9,11.6c0,0.2,0.1,0.4,0.4,0.4l1.8,0c0.3,0,0.6-0.2,0.6-0.5l1.9-11.4c0-0.2-0.1-0.4-0.4-0.4
				l-2.1,0C200.2,62.6,200,62.7,200,62.9z"/>
		</g>
	</g>
	<g>
		<path class="st0" d="M136.7,62.9c0.2-1.5,0-2.6-0.8-3.5c-0.9-1-2.6-1.5-4.7-1.5l-6.1,0c-0.4,0-0.8,0.3-0.9,0.7l-2.6,16.1
			c-0.1,0.3,0.2,0.6,0.5,0.6l3.8,0l-0.3,1.7c0,0.3,0.2,0.5,0.5,0.5l3.2,0c0.4,0,0.7-0.3,0.8-0.6l0-0.2l0.6-3.8l0-0.2
			c0.1-0.4,0.4-0.6,0.8-0.6l0.5,0c3.1,0,5.5-1.2,6.2-4.8c0.3-1.5,0.2-2.8-0.6-3.7C137.3,63.3,137,63.1,136.7,62.9L136.7,62.9"/>
		<path class="st2" d="M136.7,62.9c0.2-1.5,0-2.6-0.8-3.5c-0.9-1-2.6-1.5-4.7-1.5l-6.1,0c-0.4,0-0.8,0.3-0.9,0.7l-2.6,16.1
			c-0.1,0.3,0.2,0.6,0.5,0.6l3.8,0l1-6l0,0.2c0.1-0.4,0.4-0.7,0.9-0.7l1.8,0c3.5,0,6.3-1.4,7.1-5.5C136.6,63.1,136.7,63,136.7,62.9"
			/>
		<path class="st1" d="M127.9,62.9c0-0.3,0.2-0.5,0.4-0.6c0.1,0,0.2-0.1,0.3-0.1l4.8,0c0.6,0,1.1,0,1.6,0.1c0.1,0,0.3,0,0.4,0.1
			s0.3,0.1,0.4,0.1c0.1,0,0.1,0,0.2,0.1c0.2,0.1,0.5,0.2,0.7,0.3c0.2-1.5,0-2.6-0.8-3.5c-0.9-1-2.6-1.5-4.7-1.5l-6.1,0
			c-0.4,0-0.8,0.3-0.9,0.7l-2.6,16.1c-0.1,0.3,0.2,0.6,0.5,0.6l3.8,0l1-6L127.9,62.9z"/>
	</g>
</g>
<g>
	<g>
		<path class="st3" d="M58.9,64.3l-0.1,1l-2.5,0L56,67l2.5,0l-0.1,0.9l-2.5,0l-0.3,2.3l2.5,0l-0.1,1l-3.4,0l0.8-6.9L58.9,64.3z"/>
		<path class="st3" d="M60.8,67l0,0.4c0.4-0.3,0.8-0.4,1.2-0.4c0.4,0,0.7,0.1,1,0.3c0.2,0.2,0.4,0.5,0.4,0.9c0,0.2,0,0.5-0.1,0.7
			L63,71.2l-1,0l0.3-2.5c0-0.1,0-0.2,0-0.2c0-0.1,0-0.1,0-0.2c0-0.4-0.2-0.6-0.6-0.6c-0.3,0-0.5,0.1-0.7,0.2
			c-0.1,0.1-0.3,0.3-0.3,0.4c0,0.1-0.1,0.2-0.1,0.3c0,0.1-0.1,0.3-0.1,0.4l-0.3,2l-1,0l0.5-4.2L60.8,67z"/>
		<path class="st3" d="M71.8,67l-0.5,4.2l-1,0l0.1-0.5c-0.4,0.3-0.9,0.5-1.3,0.4c-0.6,0-1-0.2-1.4-0.5c-0.3-0.4-0.5-0.8-0.5-1.4
			c0-0.7,0.2-1.2,0.6-1.6c0.4-0.4,0.9-0.6,1.6-0.6c0.3,0,0.6,0,0.8,0c0.2,0.1,0.4,0.3,0.7,0.5l0.1-0.6L71.8,67z M70.6,69
			c0-0.4-0.1-0.7-0.3-0.9c-0.2-0.2-0.5-0.3-0.8-0.4c-0.4,0-0.7,0.1-0.9,0.4c-0.3,0.3-0.4,0.6-0.4,1.1c0,0.4,0.1,0.7,0.3,0.9
			c0.2,0.2,0.5,0.3,0.8,0.4c0.4,0,0.7-0.1,0.9-0.4C70.5,69.8,70.6,69.4,70.6,69z"/>
		<path class="st3" d="M74.6,63.7l-1,7.5l-1,0l1-7.5L74.6,63.7z"/>
		<path class="st3" d="M76.6,67.1L76,71.3l-1,0l0.5-4.2L76.6,67.1z M76.9,65.1c0,0.1-0.1,0.3-0.2,0.4c-0.1,0.1-0.2,0.2-0.4,0.2
			c-0.1,0-0.3-0.1-0.4-0.2c-0.1-0.1-0.2-0.2-0.2-0.4c0-0.1,0.1-0.3,0.2-0.4c0.1-0.1,0.2-0.2,0.4-0.2c0.1,0,0.3,0.1,0.4,0.2
			C76.8,64.8,76.9,64.9,76.9,65.1z"/>
		<path class="st3" d="M82.1,67.1l-0.5,4.2l-1,0l0.1-0.5c-0.4,0.3-0.9,0.5-1.3,0.4c-0.6,0-1-0.2-1.4-0.5c-0.3-0.4-0.5-0.8-0.5-1.4
			c0-0.7,0.2-1.2,0.6-1.6c0.4-0.4,0.9-0.6,1.6-0.6c0.3,0,0.6,0,0.8,0c0.2,0.1,0.4,0.3,0.7,0.5l0.1-0.6L82.1,67.1z M80.8,69.1
			c0-0.4-0.1-0.7-0.3-0.9c-0.2-0.2-0.5-0.3-0.8-0.4c-0.4,0-0.7,0.1-0.9,0.4c-0.3,0.3-0.4,0.6-0.4,1.1c0,0.4,0.1,0.7,0.3,0.9
			c0.2,0.2,0.5,0.3,0.8,0.4c0.4,0,0.7-0.1,0.9-0.4C80.7,69.8,80.8,69.5,80.8,69.1z"/>
		<path class="st3" d="M84.4,67.1l0,0.4c0.4-0.3,0.8-0.4,1.2-0.4c0.4,0,0.7,0.1,1,0.3c0.2,0.2,0.4,0.5,0.4,0.9c0,0.2,0,0.5-0.1,0.7
			l-0.3,2.2l-1,0l0.3-2.5c0-0.1,0-0.2,0-0.2c0-0.1,0-0.1,0-0.2c0-0.4-0.2-0.6-0.6-0.6c-0.3,0-0.5,0.1-0.7,0.2
			c-0.1,0.1-0.3,0.3-0.3,0.4c0,0.1-0.1,0.2-0.1,0.3c0,0.1-0.1,0.3-0.1,0.4l-0.3,2l-1,0l0.5-4.2L84.4,67.1z"/>
		<path class="st3" d="M91.9,70.4l-0.1,0.9l-4.3,0l2.8-3.3l-2.1,0l0.1-0.9l4,0l-2.8,3.3L91.9,70.4z"/>
		<path class="st3" d="M97.3,67.2l-0.5,4.2l-1,0l0.1-0.5c-0.4,0.3-0.9,0.5-1.3,0.4c-0.6,0-1-0.2-1.4-0.5c-0.3-0.4-0.5-0.8-0.5-1.4
			c0-0.7,0.2-1.2,0.6-1.6c0.4-0.4,0.9-0.6,1.6-0.6c0.3,0,0.6,0,0.8,0c0.2,0.1,0.4,0.3,0.7,0.5l0.1-0.6L97.3,67.2z M96.1,69.1
			c0-0.4-0.1-0.7-0.3-0.9c-0.2-0.2-0.5-0.3-0.8-0.4c-0.4,0-0.7,0.1-0.9,0.4c-0.3,0.3-0.4,0.6-0.4,1.1c0,0.4,0.1,0.7,0.3,0.9
			c0.2,0.2,0.5,0.3,0.8,0.4c0.4,0,0.7-0.1,0.9-0.4C96,69.9,96.1,69.5,96.1,69.1z"/>
		<path class="st3" d="M104.6,67.7l-0.1,1c-0.2-0.3-0.4-0.4-0.6-0.6c-0.2-0.1-0.4-0.2-0.6-0.2c-0.4,0-0.7,0.1-0.9,0.4
			c-0.2,0.3-0.4,0.6-0.4,1c0,0.4,0.1,0.7,0.3,0.9c0.2,0.2,0.5,0.4,0.9,0.4c0.3,0,0.7-0.1,1.1-0.4l-0.1,1c-0.4,0.1-0.7,0.2-1.1,0.2
			c-0.6,0-1.1-0.2-1.5-0.6c-0.4-0.4-0.6-0.9-0.6-1.5c0-0.6,0.2-1.1,0.6-1.5c0.4-0.4,0.9-0.6,1.6-0.6
			C103.7,67.2,104.2,67.4,104.6,67.7z"/>
		<path class="st3" d="M109.8,69.3c0,0.6-0.2,1.1-0.7,1.5c-0.4,0.4-1,0.6-1.6,0.6c-0.7,0-1.2-0.2-1.7-0.6c-0.4-0.4-0.6-0.9-0.6-1.5
			c0-0.6,0.2-1.1,0.7-1.5c0.5-0.4,1-0.6,1.7-0.6c0.7,0,1.2,0.2,1.6,0.6C109.6,68.2,109.8,68.7,109.8,69.3z M108.8,69.2
			c0-0.4-0.1-0.7-0.3-0.9c-0.2-0.2-0.5-0.4-0.9-0.4c-0.4,0-0.7,0.1-1,0.4c-0.3,0.3-0.4,0.6-0.4,1c0,0.4,0.1,0.7,0.4,1
			c0.2,0.2,0.6,0.4,0.9,0.4c0.4,0,0.7-0.1,1-0.4C108.7,70,108.8,69.6,108.8,69.2z"/>
		<path class="st3" d="M112.2,67.2l0,0.4c0.4-0.3,0.8-0.4,1.2-0.4c0.4,0,0.7,0.1,1,0.3c0.2,0.2,0.4,0.5,0.4,0.9c0,0.2,0,0.5-0.1,0.7
			l-0.3,2.2l-1,0l0.3-2.5c0-0.1,0-0.2,0-0.2c0-0.1,0-0.1,0-0.2c0-0.4-0.2-0.6-0.6-0.6c-0.3,0-0.5,0.1-0.7,0.2
			c-0.1,0.1-0.3,0.3-0.3,0.4c0,0.1-0.1,0.2-0.1,0.3c0,0.1-0.1,0.3-0.1,0.4l-0.3,2l-1,0l0.5-4.2L112.2,67.2z"/>
	</g>
</g>
<g>
	<path class="st4" d="M90.2,27c-3-7.8-11.6-13.2-21.3-11.6c-2.7,0.4-5.4,1.5-8.1,3l0,0c-0.4-0.8-1-1.7-1.6-2.5
		c-6.9-9.2-24.4-11.5-31.5,2.7c-0.9,1.9-1.6,3.8-1.9,5.6c0,0,0.1,0,0.1,0c-0.9-0.1-1.8-0.1-2.7,0c-9.5,1.3-13.2,10.1-11,17
		c0,0,0,0,0,0c0,0,0,0,0,0c0,0.1,0,0.2,0.1,0.2c0.7,2,1.6,3.6,2.9,5c2.1,2.3,5.1,3.6,9.6,4.4c5.5,1,13.1,1.3,23.8,1c1,0,2,0,2.9,0
		c4.8,0,10.3,0,14.4,0c2.3,0,4.1,0,5.5,0c0.2,0,0.3,0,0.3,0c0.1,0,0.2-0.1,0.2-0.1c1.4,0,2.3-0.2,2.9-0.2c0,0,0,0,0,0
		C89.8,50.7,93.7,36.1,90.2,27z"/>
	<g>
		<path class="st4" d="M85.1-11.6C85.1-11.6,85.1-11.6,85.1-11.6C85.1-11.6,85.1-11.6,85.1-11.6C85.1-11.6,85.1-11.6,85.1-11.6z"/>
	</g>
	<g>
		<path class="st5" d="M44.2,35.3c0.1-0.1,0.2-0.3,0.3-0.4c5.2-7.6,10.7-13.2,16.3-16.4c-0.4-0.8-1-1.7-1.6-2.5
			c-6.9-9.2-24.4-11.5-31.5,2.7c-0.9,1.9-1.6,3.8-1.9,5.6C31.8,24.8,37.9,29.7,44.2,35.3z"/>
		<path class="st6" d="M48.8,52c-25,0.6-33.2-1.4-36.3-10.4c-2.4-7,1.2-16,10.9-17.3C38.8,22.2,54.4,53.5,75,51.9
			C73.2,52.2,66.1,51.8,48.8,52z"/>
		<path class="st7" d="M12.4,41.3c7.9,12.4,23.1,6.9,32.2-6.5c7.7-11.2,16-18,24.3-19.4c9.7-1.6,18.3,3.8,21.3,11.6
			c3.8,9.7-0.9,25-18.3,24.9c0,0-13.8-0.1-22.8,0C23,52.3,16,51.2,12.4,41.3z"/>
		<g>
			<linearGradient id="SVGID_1_" gradientUnits="userSpaceOnUse" x1="16.5929" y1="26.9139" x2="35.0173" y2="45.3383">
				<stop  offset="0" style="stop-color:#5580FF;stop-opacity:0"/>
				<stop  offset="1" style="stop-color:#2861E8"/>
			</linearGradient>
			<path class="st8" d="M44.2,35.3c-7.3-6.3-14.1-11.9-20.9-11c-9.5,1.3-13.2,10.1-11,17C20.1,53.6,35.1,48.3,44.2,35.3z"/>
		</g>
		<linearGradient id="SVGID_2_" gradientUnits="userSpaceOnUse" x1="43.3452" y1="8.5307" x2="43.3452" y2="35.2764">
			<stop  offset="8.895859e-02" style="stop-color:#4E9DE8;stop-opacity:0"/>
			<stop  offset="0.9181" style="stop-color:#7FFFD6"/>
		</linearGradient>
		<path class="st9" d="M44.2,35.3c0.1-0.1,0.2-0.3,0.3-0.4c5.2-7.6,10.7-13.2,16.3-16.4c-0.4-0.8-1-1.7-1.6-2.5
			c-6.9-9.2-24.4-11.5-31.5,2.7c-0.9,1.9-1.6,3.8-1.9,5.6C31.8,24.8,37.9,29.7,44.2,35.3z"/>
	</g>
	<g>
		<path class="st6" d="M128.5,35.4v10.5c0,1.8-1.4,3.3-3.3,3.3c-1.9,0-3.3-1.5-3.3-3.3V35.4c0-3.9-2.9-7.1-6.4-7.1
			c-4.3,0-6.5,4.3-6.5,8.1v9.4c0,1.8-1.5,3.3-3.3,3.3s-3.3-1.5-3.3-3.3V24.7c0-1.8,1.5-3.3,3.3-3.3c1.4,0,2.7,0.9,3.1,2.3
			c2-1.3,4.3-2,6.8-2C122.7,21.7,128.5,27.8,128.5,35.4z"/>
		<path class="st6" d="M145.8,49.5c-7.2,0-13.1-6.3-13.1-13.9V25c0-1.8,1.4-3.3,3.1-3.3c1.8,0,3.5,1.5,3.5,3.3v10.6
			c0,4,3.3,7.2,6.5,7.2c3.8,0,6.6-3.2,6.6-7.2V25.5c0-1.9,1.9-3.3,3.4-3.3c1.7,0,3.2,1.4,3.2,3.3v10.1
			C159,43.2,153.1,49.5,145.8,49.5z"/>
		<path class="st6" d="M191.7,35.3c0,7.8-6.3,14-14,14c-2.9,0-5.7-0.9-7.9-2.4c-0.4,1.3-1.7,2.3-3.2,2.3c-1.9,0-3.4-1.5-3.4-3.3
			V10.6c0-1.8,1.5-3.4,3.4-3.4c1.8,0,3.3,1.6,3.3,3.4v13c2.3-1.4,4.9-2.3,7.8-2.3C185.4,21.2,191.7,27.5,191.7,35.3z M185,35.3
			c0-4-3.3-7.3-7.3-7.3c-4,0-7.3,3.3-7.3,7.3s3.3,7.3,7.3,7.3C181.7,42.6,185,39.3,185,35.3z"/>
		<path class="st6" d="M199.4,16.8c-1.9,0-3.5-1.6-3.5-3.4v-0.3c0-1.9,1.6-3.4,3.5-3.4c1.8,0,3.4,1.5,3.4,3.4v0.3
			C202.7,15.3,201.2,16.8,199.4,16.8z M199.4,49.3c-1.9,0-3.5-1.6-3.5-3.4V24.5c0-1.9,1.6-3.4,3.5-3.4c1.8,0,3.4,1.5,3.4,3.4v21.4
			C202.7,47.8,201.2,49.3,199.4,49.3z"/>
	</g>
</g>
</svg>
