<?xml version="1.0" encoding="UTF-8"?>
<svg width="287px" height="116px" viewBox="0 0 287 116" version="1.1" xmlns="http://www.w3.org/2000/svg" xmlns:xlink="http://www.w3.org/1999/xlink">
    <!-- Generator: Sketch 46.1 (44463) - http://www.bohemiancoding.com/sketch -->
    <title>img_steps_responsive_1</title>
    <desc>Created with Sketch.</desc>
    <defs>
        <polygon id="path-1" points="0 0.193456253 0 14.0709743 18.5561231 14.0709743 18.5561231 0.193456253 6.16532472e-21 0.193456253"></polygon>
        <polygon id="path-3" points="19.9731555 0.343076318 0.0285235259 0.343076318 0.0285235259 15.5989851 19.9731555 15.5989851 19.9731555 0.343076318"></polygon>
        <polygon id="path-5" points="0.0891644511 22.4232887 43.1292089 22.4232887 43.1292089 0.241393268 0.0891644511 0.241393268"></polygon>
    </defs>
    <g id="Symbols" stroke="none" stroke-width="1" fill="none" fill-rule="evenodd">
        <g id="img_steps_responsive_1">
            <g id="Group-5" transform="translate(0.000000, -32.000000)">
                <path d="M128.059286,50.8114286 C128.059286,25.627244 107.617014,5.21142857 82.4001949,5.21142857 C57.1833753,5.21142857 36.741104,25.627244 36.741104,50.8114286 C36.741104,67.4134978 47.9077695,114.041719 55.1304153,142.605907" id="Oval-4-Copy-27" stroke="#54FFC8" stroke-width="3" stroke-linecap="round" stroke-linejoin="round" transform="translate(82.400195, 73.908668) scale(-1, -1) rotate(-300.000000) translate(-82.400195, -73.908668) "></path>
                <path d="M215.224059,8.91747794 C190.007239,8.91747794 169.564968,29.3332933 169.564968,54.5174779 C169.564968,71.1195471 180.731633,117.747768 187.954279,146.311957" id="Oval-4-Copy-29" stroke="#54FFC8" stroke-width="3" stroke-linecap="round" stroke-linejoin="round" transform="translate(192.394513, 77.614717) rotate(-300.000000) translate(-192.394513, -77.614717) "></path>
                <path d="M225.302738,90.3327948 C195.903278,90.3327948 172.070307,114.134922 172.070307,143.496333" id="Oval-4-Copy-37" stroke="#54FFC8" stroke-width="3" stroke-linecap="round" stroke-linejoin="round" transform="translate(198.686523, 116.914564) scale(-1, -1) rotate(-277.000000) translate(-198.686523, -116.914564) "></path>
                <path d="M107.627963,37.7858161 C82.4111432,37.7858161 61.9688719,58.2016316 61.9688719,83.3858161" id="Oval-4-Copy-35" stroke="#54FFC8" stroke-width="3" stroke-linecap="round" stroke-linejoin="round" transform="translate(84.798417, 60.585816) rotate(-277.000000) translate(-84.798417, -60.585816) "></path>
                <path d="M289.234016,119.741933 C289.234016,94.5577481 268.791744,74.1419326 243.574925,74.1419326 C218.358105,74.1419326 197.915834,94.5577481 197.915834,119.741933" id="Oval-4-Copy-33" stroke="#54FFC8" stroke-width="3" stroke-linecap="round" stroke-linejoin="round" transform="translate(243.574925, 96.941933) scale(1, -1) rotate(-300.000000) translate(-243.574925, -96.941933) "></path>
                <g id="Group-24-Copy-2" transform="translate(39.136364, 72.960000)">
                    <g id="ic_landing_nubi-copy" transform="translate(0.000000, 0.126535)">
                        <g id="Group-3" transform="translate(0.000000, 10.420102)">
                            <mask id="mask-2" fill="white">
                                <use xlink:href="#path-1"></use>
                            </mask>
                            <g id="Clip-2"></g>
                            <path d="M8.55514712,0.293565696 C8.39774456,0.267106216 8.24079693,0.244682927 8.0838493,0.228986625 C7.58343657,0.177413061 7.08575336,0.180552321 6.59170951,0.247822187 C3.65474167,0.647853659 2.05842504,2.24708261 1.23683831,3.51803462 C0.00582298456,5.42177183 -0.328998628,7.86591031 0.334275708,10.0737073 C0.381132536,10.1481526 0.429809048,10.2203556 0.477575718,10.2930071 C0.52625223,10.366107 0.573563979,10.4405523 0.623150332,10.5118584 C0.678650654,10.5916853 0.735970658,10.6679245 0.792835742,10.7450606 C0.844241777,10.8150212 0.895192892,10.8867758 0.94796369,10.9549426 C1.00437385,11.0280425 1.06305862,11.0975547 1.12128846,11.1684123 C1.17633387,11.2356821 1.23046943,11.3042974 1.28642467,11.3693249 C1.34328975,11.4352494 1.40242944,11.4971377 1.46065928,11.5608198 C1.51979897,11.6258474 1.57848374,11.6926688 1.63898819,11.755454 C1.69585327,11.814203 1.75453804,11.8689158 1.81185804,11.9254225 C1.87600185,11.9877592 1.93923583,12.0523383 2.00428948,12.1119843 C2.06069965,12.1640063 2.11847457,12.2115437 2.17533965,12.2608749 C2.2444876,12.3209693 2.3127257,12.3828576 2.38278348,12.4398127 C2.43691904,12.4842109 2.49287428,12.5241243 2.54746476,12.5662801 C2.62252667,12.6241322 2.69713366,12.6837781 2.77356033,12.738491 C2.82405653,12.7743682 2.87591748,12.8062093 2.9268686,12.8407411 C3.00966416,12.8972478 3.0920048,12.9546515 3.17662005,13.007122 C3.21619815,13.0317876 3.25714101,13.0528655 3.29717402,13.0770826 C3.65064738,13.2869646 4.01685852,13.4659024 4.39535252,13.6103084 C4.41309443,13.6170354 4.42992649,13.6251078 4.4476684,13.6318348 C4.54729602,13.668609 4.64828841,13.7000016 4.7492808,13.7322911 C4.79841223,13.7479874 4.8461789,13.7663745 4.89531033,13.7807254 C4.98947891,13.8085303 5.08501225,13.8309536 5.18009067,13.8547223 C5.2378656,13.8690732 5.2951856,13.8861149 5.35387037,13.8991204 C5.44621926,13.9197498 5.54038784,13.9354461 5.6341015,13.9524878 C5.69688055,13.9636994 5.75874976,13.9776019 5.82198374,13.9870197 C5.91615232,14.0013706 6.01168566,14.0107884 6.107219,14.0215515 C6.17136281,14.028727 6.23459678,14.0385932 6.29965044,14.0439748 C6.39745838,14.0524957 6.49708601,14.0556349 6.59625872,14.0605681 C6.66222221,14.0632589 6.72773079,14.0690889 6.79460413,14.0699858 C6.81644032,14.0708828 6.83782159,14.0708828 6.85965778,14.0708828 C6.90651461,14.0713312 6.95291652,14.0699858 6.99977335,14.0699858 C7.22177464,14.0686404 7.4455956,14.0592227 7.67078134,14.0399386 C7.6853388,14.0385932 7.69989626,14.0367994 7.7139988,14.035454 C11.3974915,13.6973108 15.4362772,10.9522518 18.5479345,6.63442329 C18.5506641,6.63083556 18.5533936,6.62724784 18.5561231,6.62321164 C18.4760571,6.55280252 18.395991,6.48149646 18.3163799,6.41108733 C18.2749821,6.37476161 18.2335843,6.33798741 18.1921866,6.30166168 C18.0193167,6.14918332 17.8473567,5.99939575 17.6758516,5.85050511 C14.8999257,3.43865618 12.2950499,1.43491109 9.79298626,0.604800944 C9.74203514,0.587759245 9.69108403,0.572959874 9.64013291,0.557263572 C9.48045576,0.507035405 9.32123352,0.461740362 9.16201129,0.421378442 C9.02462525,0.387295043 8.88678428,0.354557042 8.74985316,0.328097561 C8.68479951,0.315092054 8.61974585,0.304777341 8.55514712,0.293565696" id="Fill-1" fill="#214A60" mask="url(#mask-2)"></path>
                        </g>
                        <g id="Group-6" transform="translate(9.098413, 0.105389)">
                            <mask id="mask-4" fill="white">
                                <use xlink:href="#path-3"></use>
                            </mask>
                            <g id="Clip-5"></g>
                            <path d="M1.01115217,6.34130606 C0.567604519,7.25079465 0.238241954,8.17149489 0.0285235259,9.08681353 C0.0358022566,9.08815893 0.043535908,9.09040126 0.0512695594,9.09174666 C0.229143541,9.12358773 0.407017523,9.16215578 0.585346425,9.2052085 C0.653584525,9.22135327 0.721822625,9.2392919 0.790060726,9.25723053 C0.90151629,9.28682927 1.01297185,9.31867034 1.12442742,9.35275374 C1.28819886,9.40163651 1.4519703,9.45590087 1.61574174,9.51375295 C1.66168873,9.53034618 1.70763572,9.54559402 1.7535827,9.56308419 C4.44671306,10.5528482 7.13847866,12.6731943 10.0072084,15.1854996 C10.1236681,15.2877498 10.2405827,15.39 10.3574973,15.4931471 C10.3979853,15.5285759 10.4375634,15.5631078 10.4780513,15.5989851 C10.5094408,15.5532415 10.5408303,15.5092919 10.5717649,15.4635484 C10.7014173,15.2738474 10.8315247,15.0863887 10.961632,14.9011723 C11.0048494,14.839284 11.0480669,14.7769473 11.0917393,14.7155075 C13.9773011,10.6385051 16.9470232,7.64006294 19.9731555,5.74036192 C19.7757199,5.40401259 19.5605424,5.07528718 19.3285329,4.75867034 C17.1667499,1.80642014 13.1425216,0.049779701 9.31982327,0.383438238 C5.67909316,0.702745869 2.72802278,2.8186074 1.01115217,6.34130606" id="Fill-4" fill="#214A60" mask="url(#mask-4)"></path>
                        </g>
                        <g id="Group-9" transform="translate(5.004127, 5.038513)">
                            <mask id="mask-6" fill="white">
                                <use xlink:href="#path-5"></use>
                            </mask>
                            <g id="Clip-8"></g>
                            <path d="M17.6973239,22.274443 C23.1654703,22.2260087 31.6747614,22.4233336 31.7602865,22.4233336 L31.7666554,22.4233336 C36.9836856,22.4233336 39.7414147,19.9168584 41.1362015,17.9386758 C43.2129143,14.9931526 43.7146918,10.7914768 42.4149835,7.3490535 C40.5620916,2.44194099 35.3364179,-0.500442958 29.9874607,0.40411251 C28.3301847,0.684403619 26.6556217,1.32301888 24.985153,2.3383454 C24.939206,2.36615028 24.8937139,2.3867797 24.8482219,2.41503304 C24.7231187,2.49216916 24.5984704,2.56706294 24.4733672,2.64868371 C24.4324244,2.67559166 24.3910266,2.70205114 24.3496288,2.72940755 C24.1262628,2.87784972 23.9028967,3.03212195 23.6799856,3.19312116 C23.6185713,3.23751928 23.557157,3.28057199 23.4961976,3.32586703 C23.3847421,3.40793627 23.2732865,3.4926963 23.1618309,3.5779048 C23.0963224,3.62813297 23.0308138,3.67925806 22.9657601,3.73038316 C22.8502103,3.82142172 22.7346604,3.9120118 22.6195655,4.00618961 C22.6009138,4.02143745 22.5827169,4.03713375 22.5640652,4.05238159 C22.2938423,4.27482061 22.0236194,4.50622895 21.7538515,4.74750354 C21.7288308,4.76992683 21.7033553,4.79235012 21.6783346,4.81477341 C21.5395838,4.93989536 21.401288,5.06725964 21.2625371,5.19686625 C21.2434305,5.21525334 21.2238689,5.23364044 21.2043073,5.25202754 C20.1607193,6.23640991 19.1235002,7.36116208 18.0976541,8.6213509 C18.080822,8.6424288 18.063535,8.66305822 18.046248,8.68413611 C17.9084071,8.85455311 17.7705661,9.02721243 17.6327251,9.20211408 C17.6136185,9.2267797 17.5949667,9.25144532 17.5754051,9.27566247 C17.3142807,9.60976947 17.054066,9.95284579 16.7947613,10.3039945 C16.7697406,10.3380779 16.7442651,10.3712644 16.7192444,10.4053478 C16.6109733,10.552893 16.5027022,10.703129 16.394886,10.8538135 C16.3252831,10.9511306 16.2556803,11.0484477 16.1860774,11.1471101 C16.0873596,11.286583 15.9881869,11.4269528 15.889924,11.5691164 C15.8016694,11.6964807 15.7143247,11.8256389 15.626525,11.954797 C15.591951,12.0054736 15.557377,12.0561503 15.5228031,12.1068269 L15.5241678,12.1077238 L15.2152767,12.5566381 L15.2070881,12.5678497 C15.1584116,12.6387073 15.1106449,12.7091164 15.0615135,12.7790771 L14.8081227,13.1463706 L14.800844,13.1360559 C11.2456389,18.0185028 6.52083287,20.9846554 2.25003763,20.9846554 C2.19726683,20.9846554 2.14495095,21.0398167 2.09263508,21.0389197 C2.0798973,21.0384713 2.06715952,21.0779363 2.05442174,21.0779363 L2.03758968,21.0779363 C2.01666333,21.0779363 1.99664682,21.0344351 1.97572047,21.0335382 C1.81695315,21.0290535 1.6595506,21.0151511 1.50351281,21.0021456 C1.45301662,20.9981094 1.40343026,20.9738922 1.35338899,20.9689591 C1.22464644,20.9559536 1.09635881,20.9326334 0.969435946,20.9142463 C0.908931497,20.9052769 0.849336889,20.8904776 0.789742281,20.8801629 C0.673737511,20.8608788 0.558642581,20.8375586 0.444457494,20.8133415 C0.381223521,20.800336 0.318444468,20.7846397 0.255665416,20.7698403 C0.200165094,20.7568348 0.144209852,20.8066145 0.0891644511,20.792712 C3.29953961,22.0977474 8.55387334,22.3551668 17.6973239,22.274443" id="Fill-7" fill="#214A60" mask="url(#mask-6)"></path>
                        </g>
                    </g>
                </g>
                <g id="Group-23-Copy-2" transform="translate(206.204545, 67.097143)" fill="#214A60">
                    <g id="ic_landing--copy" transform="translate(0.000000, 0.126535)">
                        <path d="M13.3957914,8.17516684 C13.7095966,8.02554765 14.0461043,7.9494701 14.3949181,7.9494701 L23.8835452,7.9494701 C25.0645049,7.9494701 26.1603828,8.02935153 27.1412626,8.18700112 C27.4304555,8.23349296 27.7124346,8.28653592 27.9865632,8.34739796 C28.2621771,8.40783735 28.5312135,8.47651847 28.7909143,8.55259602 C28.9205525,8.59021214 29.0493421,8.63015286 29.176222,8.67199551 C29.303102,8.71383816 29.421495,8.76371122 29.5443437,8.80978041 C29.736361,6.22694755 29.0119995,4.42538888 27.7605981,3.04669459 C25.9263551,1.02577898 22.697069,0.121935408 18.5267918,0.121935408 L7.25590436,0.121935408 C6.40360197,0.121935408 5.67817956,0.739431531 5.54535872,1.57818653 L0.504744402,33.4136831 C0.405234863,34.0415342 0.892598213,34.6095799 1.53102935,34.6095799 L8.17016151,34.6095799 L12.1106544,9.89430816 C12.2290474,9.14578959 12.709409,8.50335694 13.3957914,8.17516684" id="Fill-11"></path>
                        <path d="M28.6744309,10.1798103 C28.5666465,10.1440961 28.4563161,10.1094386 28.343864,10.0773169 C28.1162014,10.0105378 27.8821737,9.95136633 27.6411442,9.89811204 C27.3960834,9.84401245 27.1455061,9.79625265 26.8877148,9.75504398 C25.9902194,9.61091929 24.9796353,9.53801163 23.8835452,9.53801163 L15.0717527,9.53801163 C14.8387858,9.53801163 14.6166398,9.59063194 14.4176207,9.68572888 C13.9801182,9.89451949 13.6550679,10.3074515 13.5752905,10.811888 L11.9841988,20.8883596 C12.1530891,20.8577172 12.3323761,20.8384865 12.527576,20.8384865 L16.0791542,20.8384865 C17.963258,20.8384865 19.6462211,20.6275827 21.1322868,20.2028163 C24.8930684,19.1282209 27.4213321,16.6893014 28.6886465,12.8154748 C28.9691404,11.9574891 29.174949,11.1643806 29.3194394,10.4234698 C29.1129942,10.335558 28.8982743,10.2537746 28.6744309,10.1798103" id="Fill-12"></path>
                        <path d="M31.9372404,12.013068 C31.6325588,11.6671264 31.2608302,11.3754958 30.8606703,11.1071111 C29.8783053,15.8395574 26.9481844,22.4999357 15.9658534,22.4999357 C15.9427264,22.4999357 13.2432384,22.4908487 13.2432384,22.4908487 C12.390936,22.4908487 11.6714545,23.1085561 11.5386337,23.9468885 C11.5386337,23.9468885 9.42368465,37.217138 9.31950729,37.9136702 C9.23675948,38.4654438 9.71690892,38.9138787 10.2201853,38.9138787 L15.6849352,38.9138787 C16.4305141,38.9138787 17.0653383,38.3735167 17.1816096,37.6400023 L18.5064231,29.4126379 C18.6226944,28.6791235 19.2573064,28.1387615 20.0030975,28.1387615 L20.9451494,28.1387615 C27.0474817,28.1387615 31.825637,25.6691997 33.221741,18.5282649 C33.263327,18.3163044 33.2993966,18.1026533 33.3327079,17.8879455 C33.6212643,15.4948839 33.2329862,13.483478 31.9372404,12.013068" id="Fill-13"></path>
                    </g>
                </g>
            </g>
        </g>
    </g>
</svg>