<?xml version="1.0" encoding="UTF-8"?>
<svg width="918px" height="191px" viewBox="0 0 918 191" version="1.1" xmlns="http://www.w3.org/2000/svg" xmlns:xlink="http://www.w3.org/1999/xlink">
    <!-- Generator: Sketch 46.1 (44463) - http://www.bohemiancoding.com/sketch -->
    <title>img_steps</title>
    <desc>Created with Sketch.</desc>
    <defs>
        <polygon id="path-1" points="41.4774088 60.6949412 0 60.6949412 0 0 41.4774088 0 82.9548176 0 82.9548176 60.6949412 41.4774088 60.6949412"></polygon>
        <polygon id="path-3" points="0 0.296972318 0 21.6001798 28.4484117 21.6001798 28.4484117 0.296972318 9.45206577e-21 0.296972318"></polygon>
        <polygon id="path-5" points="30.6208656 0.526652242 0.0437294474 0.526652242 0.0437294474 23.9458104 30.6208656 23.9458104 30.6208656 0.526652242"></polygon>
        <polygon id="path-7" points="0.136698113 34.4217152 66.1214353 34.4217152 66.1214353 0.370559841 0.136698113 0.370559841"></polygon>
        <polygon id="path-9" points="65.6307347 19.423221 65.6307347 0.41150892 32.8153938 0.41150892 5.28536675e-05 0.41150892 5.28536675e-05 19.423221 65.6307347 19.423221"></polygon>
    </defs>
    <g id="Symbols" stroke="none" stroke-width="1" fill="none" fill-rule="evenodd">
        <g id="img_steps">
            <g id="Group-11" transform="translate(0.000000, -36.000000)">
                <path d="M196.327825,78 C196.327825,39.3400675 164.987757,8 126.327825,8 C87.6678924,8 56.3278249,39.3400675 56.3278249,78 C56.3278249,103.485633 73.4474515,175.064042 84.5204973,218.912577" id="Oval-4-Copy-27" stroke="#54FFC8" stroke-width="5" stroke-linecap="round" stroke-linejoin="round" transform="translate(126.327825, 113.456289) scale(-1, -1) rotate(-300.000000) translate(-126.327825, -113.456289) "></path>
                <g id="Group-21-Copy-2" transform="translate(779.000000, 99.000000)">
                    <g id="ic_landing_cobro-copy" transform="translate(0.000000, 0.194242)">
                        <g id="Page-1">
                            <mask id="mask-2" fill="white">
                                <use xlink:href="#path-1"></use>
                            </mask>
                            <g id="Clip-2"></g>
                            <path d="M42.4347,25.8880588 C40.6781118,25.8880588 39.2488765,27.3172941 39.2488765,29.0738824 L39.2488765,30.8415882 C39.2488765,32.5994118 40.6781118,34.0286471 42.4347,34.0286471 L61.9696412,34.0286471 C63.7262294,34.0286471 65.1554647,32.5994118 65.1554647,30.8415882 L65.1554647,29.0738824 C65.1567,27.3172941 63.7274647,25.8880588 61.9708765,25.8880588 L42.4347,25.8880588 Z M28.8983471,21.5978824 L48.4332882,21.5978824 C50.1898765,21.5978824 51.6191118,20.1686471 51.6191118,18.4108235 L51.6191118,16.6431176 C51.6191118,14.8865294 50.1898765,13.4572941 48.4332882,13.4572941 L28.8983471,13.4572941 C27.1417588,13.4572941 25.7125235,14.8865294 25.7125235,16.6431176 L25.7125235,18.4108235 C25.7125235,20.1686471 27.1417588,21.5978824 28.8983471,21.5978824 L28.8983471,21.5978824 Z M42.4347,8.13935294 L61.9696412,8.13935294 C63.7262294,8.13935294 65.1554647,6.71011765 65.1554647,4.95352941 L65.1554647,3.18582353 C65.1554647,1.42923529 63.7262294,0 61.9696412,0 L42.4347,0 C40.6781118,0 39.2488765,1.42923529 39.2488765,3.18582353 L39.2488765,4.95352941 C39.2488765,6.70888235 40.6781118,8.13935294 42.4347,8.13935294 L42.4347,8.13935294 Z" id="Fill-1" fill="#214A60" mask="url(#mask-2)"></path>
                        </g>
                        <path d="M80.3608235,47.540224 C79.4590588,47.422871 78.4424118,47.6192828 77.5727647,47.9355181 C72.3363529,49.8366358 67.3544118,52.0527534 62.1377647,54.0106946 C61.8808235,54.1070475 61.5818824,54.2157534 61.4151176,54.4134005 C60.0575294,56.0131063 58.2675882,56.6591652 56.2627059,56.683871 C53.0188235,56.7221652 49.7749412,56.830871 46.5310588,56.9074593 C44.331,56.9593416 42.1309412,57.0161652 39.9308824,57.0556946 C39.375,57.0655769 38.6745882,56.4466946 38.6375294,55.7969299 C38.6004706,55.1459299 39.0451765,54.9248122 39.6097059,54.869224 C39.8345294,54.8469887 40.0593529,54.8309299 40.2854118,54.8247534 C43.0215882,54.7543416 45.7565294,54.6876358 48.4927059,54.6196946 C51.3697059,54.5480475 54.2491765,54.5282828 57.1224706,54.3874593 C59.1310588,54.2886358 60.4972941,52.7939299 60.5306471,50.8693416 C60.5664706,48.8026946 58.9630588,47.2400475 56.784,47.2808122 C53.5561765,47.3425769 49.4722941,46.9003416 46.1617059,46.3876946 C42.2235882,45.7774593 40.3076471,43.7614593 36.4868824,42.5335769 C30.5994706,40.6411063 24.5724706,41.3279299 18.4948235,41.4526946 C18.4837059,41.0289887 18.4738235,40.6065181 18.4627059,40.1828122 C18.4281176,38.846224 17.7783529,38.2644005 16.4257059,38.2952828 C12.8742353,38.3768122 9.32276471,38.4632828 5.77252941,38.5509887 C5.55388235,38.5559299 5.33647059,38.5843416 4.94117647,38.615224 C5.13882353,40.5076946 5.27470588,42.353224 5.53411765,44.180224 C6.50382353,50.992871 8.87805882,57.2916358 12.6012353,63.0752828 C12.7717059,63.3396358 13.1991176,63.5780475 13.5128824,63.5866946 C14.7234706,63.6188122 15.9365294,63.563224 17.1483529,63.521224 C18.3490588,63.479224 19.0099412,62.7985769 18.9815294,61.5756358 C18.9741176,61.2285181 18.9654706,60.8814005 18.9568235,60.5355181 C18.963,60.5367534 18.9667059,60.539224 18.9728824,60.5404593 C21.7053529,61.3174593 24.4254706,62.1401652 27.1542353,62.9295181 C32.235,64.3970475 37.2873529,65.9806946 42.4125882,67.2691063 C46.6644706,68.3376358 50.9509412,68.4636358 54.9928235,66.238871 C63.5558824,61.5249887 72.1251176,56.8234593 80.6807647,52.0959887 C81.1081765,51.8600475 81.4935882,51.4721652 81.7789412,51.0706946 C82.7449412,49.7007534 82.0173529,47.7551652 80.3608235,47.540224" id="Fill-1" fill="#214A60"></path>
                    </g>
                </g>
                <path d="M861.327825,113 C861.327825,74.3400675 829.987757,43 791.327825,43 C752.667892,43 721.327825,74.3400675 721.327825,113 C721.327825,138.485633 738.447451,210.064042 749.520497,253.912577" id="Oval-4-Copy-28" stroke="#54FFC8" stroke-width="5" stroke-linecap="round" stroke-linejoin="round" transform="translate(791.327825, 148.456289) rotate(-300.000000) translate(-791.327825, -148.456289) "></path>
                <path d="M323.827825,13.6891109 C285.167892,13.6891109 253.827825,45.0291784 253.827825,83.6891109 C253.827825,109.174743 270.947451,180.753153 282.020497,224.601688" id="Oval-4-Copy-29" stroke="#54FFC8" stroke-width="5" stroke-linecap="round" stroke-linejoin="round" transform="translate(288.827825, 119.145399) rotate(-300.000000) translate(-288.827825, -119.145399) "></path>
                <path d="M824.004542,134.004542 C785.34461,134.004542 754.004542,165.34461 754.004542,204.004542" id="Oval-4-Copy-31" stroke="#54FFC8" stroke-width="5" stroke-linecap="round" stroke-linejoin="round" transform="translate(789.004542, 169.004542) scale(-1, -1) rotate(-277.000000) translate(-789.004542, -169.004542) "></path>
                <path d="M339.279459,138.668764 C294.207117,138.668764 257.668764,175.207117 257.668764,220.279459" id="Oval-4-Copy-37" stroke="#54FFC8" stroke-width="5" stroke-linecap="round" stroke-linejoin="round" transform="translate(298.474111, 179.474111) scale(-1, -1) rotate(-277.000000) translate(-298.474111, -179.474111) "></path>
                <path d="M900.279459,42.668764 C855.207117,42.668764 818.668764,79.2071166 818.668764,124.279459" id="Oval-4-Copy-38" stroke="#54FFC8" stroke-width="5" stroke-linecap="round" stroke-linejoin="round" transform="translate(859.474111, 83.474111) rotate(-277.000000) translate(-859.474111, -83.474111) "></path>
                <path d="M165.004542,58.0045423 C126.34461,58.0045423 95.0045423,89.3446098 95.0045423,128.004542" id="Oval-4-Copy-35" stroke="#54FFC8" stroke-width="5" stroke-linecap="round" stroke-linejoin="round" transform="translate(130.004542, 93.004542) rotate(-277.000000) translate(-130.004542, -93.004542) "></path>
                <path d="M437.327825,79 C437.327825,40.3400675 405.987757,9 367.327825,9 C328.667892,9 297.327825,40.3400675 297.327825,79 C297.327825,104.485633 314.447451,176.064042 325.520497,219.912577" id="Oval-4-Copy-33" stroke="#54FFC8" stroke-width="5" stroke-linecap="round" stroke-linejoin="round" transform="translate(367.327825, 114.456289) scale(-1, -1) rotate(-300.000000) translate(-367.327825, -114.456289) "></path>
                <path d="M659.172175,40.3983119 C620.512243,40.3983119 589.172175,71.7383795 589.172175,110.398312 C589.172175,135.883944 606.291802,207.462354 617.364847,251.310889" id="Oval-4-Copy-32" stroke="#54FFC8" stroke-width="5" stroke-linecap="round" stroke-linejoin="round" transform="translate(624.172175, 145.854601) scale(-1, -1) rotate(-300.000000) translate(-624.172175, -145.854601) "></path>
                <path d="M617.672175,114.087423 C617.672175,75.4274903 586.332108,44.0874228 547.672175,44.0874228 C509.012243,44.0874228 477.672175,75.4274903 477.672175,114.087423 C477.672175,139.573055 494.791802,211.151465 505.864847,255" id="Oval-4-Copy-34" stroke="#54FFC8" stroke-width="5" stroke-linecap="round" stroke-linejoin="round" transform="translate(547.672175, 149.543711) rotate(-300.000000) translate(-547.672175, -149.543711) "></path>
                <g id="Group-24-Copy-2" transform="translate(60.000000, 112.000000)">
                    <g id="ic_landing_nubi-copy" transform="translate(0.000000, 0.194242)">
                        <g id="Group-3" transform="translate(0.000000, 15.995771)">
                            <mask id="mask-4" fill="white">
                                <use xlink:href="#path-3"></use>
                            </mask>
                            <g id="Clip-2"></g>
                            <path d="M13.115905,0.450649095 C12.874591,0.410031471 12.6339744,0.375609756 12.3933578,0.351514555 C11.6261745,0.272344611 10.8631759,0.277163651 10.1057567,0.380428796 C5.60308827,0.994512195 3.15577358,3.44946892 1.89619811,5.40049174 C0.00892722372,8.32289536 -0.50438814,12.0748623 0.512478437,15.4640244 C0.58431469,15.5783045 0.658940701,15.6891424 0.732171833,15.8006688 C0.806797844,15.9128836 0.879331536,16.0271637 0.955352426,16.1366247 C1.04044003,16.259166 1.12831739,16.3761998 1.2154973,16.4946105 C1.29430795,16.6020063 1.37242116,16.7121558 1.45332412,16.8167978 C1.5398066,16.9290126 1.62977628,17.0357199 1.71904852,17.1444925 C1.80343868,17.2477577 1.88643396,17.3530881 1.972219,17.4529111 C2.05939892,17.5541109 2.15006604,17.6491149 2.23933827,17.7468725 C2.33000539,17.8466955 2.41997507,17.9492722 2.5127345,18.045653 C2.59991442,18.1358379 2.6898841,18.2198269 2.77776146,18.3065696 C2.8761004,18.402262 2.97304447,18.5013965 3.0727783,18.5929583 C3.15926078,18.6728167 3.24783558,18.7457907 3.3350155,18.8215185 C3.44102628,18.9137687 3.54564218,19.0087726 3.65304784,19.0962038 C3.73604313,19.1643588 3.82182817,19.2256294 3.90552089,19.2903423 C4.02059838,19.3791503 4.13497844,19.470712 4.25214825,19.554701 C4.32956402,19.6097758 4.4090721,19.6586546 4.48718531,19.711664 C4.61411927,19.7984068 4.7403558,19.8865264 4.87007951,19.9670732 C4.93075674,20.0049371 4.99352628,20.0372935 5.05490094,20.0744689 C5.59681132,20.3966562 6.15825,20.6713415 6.73851954,20.8930173 C6.76571968,20.9033438 6.79152493,20.9157356 6.81872507,20.9260622 C6.97146429,20.9825138 7.12629582,21.0307042 7.28112736,21.0802714 C7.35645081,21.1043666 7.42968194,21.1325924 7.50500539,21.1546223 C7.64937534,21.1973053 7.7958376,21.231727 7.94160243,21.268214 C8.03017722,21.2902439 8.11805458,21.3164044 8.20802426,21.336369 C8.34960445,21.368037 8.49397439,21.3921322 8.6376469,21.4182927 C8.73389353,21.4355035 8.82874528,21.456845 8.92568935,21.4713021 C9.0700593,21.493332 9.21652156,21.5077891 9.36298383,21.5243116 C9.46132278,21.5353265 9.55826685,21.5504721 9.65800067,21.5587333 C9.80795013,21.5718135 9.96068935,21.5766326 10.1127311,21.5842054 C10.2138598,21.588336 10.3142911,21.5972856 10.4168147,21.5986625 C10.4502918,21.6000393 10.4830714,21.6000393 10.5165485,21.6000393 C10.5883848,21.6007278 10.6595236,21.5986625 10.7313598,21.5986625 C11.0717102,21.5965972 11.4148504,21.58214 11.7600829,21.5525374 C11.7824009,21.5504721 11.804719,21.5477183 11.8263396,21.545653 C17.4735061,21.0265736 23.6653726,16.8126672 28.4358578,10.1844217 C28.4400425,10.1789142 28.4442271,10.1734068 28.4484117,10.1672109 C28.3256624,10.0591267 28.2029131,9.94966562 28.0808612,9.84158143 C28.0173942,9.78581825 27.9539272,9.72936664 27.8904602,9.67360346 C27.6254333,9.4395358 27.3618012,9.20959874 27.0988666,8.98103855 C22.8430916,5.27863887 18.8495539,2.2027144 15.0136375,0.928422502 C14.9355243,0.902261998 14.8574111,0.879543666 14.7792978,0.855448466 C14.5344966,0.778343824 14.2903929,0.708811959 14.0462891,0.646852872 C13.8356624,0.594531865 13.6243383,0.544276161 13.414409,0.503658537 C13.3146752,0.483693942 13.2149414,0.467859953 13.115905,0.450649095" id="Fill-1" fill="#214A60" mask="url(#mask-4)"></path>
                        </g>
                        <g id="Group-6" transform="translate(13.948787, 0.161782)">
                            <mask id="mask-6" fill="white">
                                <use xlink:href="#path-5"></use>
                            </mask>
                            <g id="Clip-5"></g>
                            <path d="M1.55019845,9.73446105 C0.870195081,11.1306058 0.365248989,12.5439614 0.0437294474,13.9490559 C0.0548884771,13.9511212 0.0667449461,13.9545633 0.0786014151,13.9566286 C0.351300202,14.0055075 0.623998989,14.0647128 0.897395216,14.1308025 C1.00201112,14.1555862 1.10662702,14.1831235 1.21124292,14.2106609 C1.38211557,14.2560976 1.55298821,14.3049764 1.72386085,14.3572974 C1.97493902,14.4323367 2.22601718,14.5156373 2.47709535,14.6044453 C2.54753673,14.6299174 2.6179781,14.6533242 2.68841947,14.6801731 C6.81726044,16.1995476 10.9440091,19.454465 15.3420617,23.311074 C15.5206061,23.468037 15.699848,23.625 15.87909,23.7833399 C15.9411621,23.8377262 16.0018393,23.8907356 16.0639114,23.9458104 C16.1120347,23.8755901 16.160158,23.8081235 16.2075839,23.7379032 C16.4063541,23.4466955 16.6058218,23.15893 16.8052894,22.8746066 C16.8715462,22.7796027 16.9378029,22.6839103 17.0047571,22.5895948 C21.4286149,16.3310386 25.981499,11.7281668 30.6208656,8.81195909 C30.3181769,8.29563336 29.9882881,7.79101101 29.632594,7.3049764 C26.3183622,2.77301338 20.1488137,0.0764162077 14.2882308,0.58861133 C8.70662365,1.07877655 4.18233457,4.3268096 1.55019845,9.73446105" id="Fill-4" fill="#214A60" mask="url(#mask-6)"></path>
                        </g>
                        <g id="Group-9" transform="translate(7.671833, 7.734559)">
                            <mask id="mask-8" fill="white">
                                <use xlink:href="#path-7"></use>
                            </mask>
                            <g id="Clip-8"></g>
                            <path d="M27.1317857,34.1932238 C35.5150067,34.1188729 48.5606098,34.421784 48.6917284,34.421784 L48.7014926,34.421784 C56.6997271,34.421784 60.9276044,30.5741247 63.0659535,27.537441 C66.2497642,23.0158045 67.0190398,16.5658635 65.0264555,11.2814418 C62.185785,3.74859363 54.1742992,-0.768223839 45.9738073,0.620348151 C43.4330357,1.05061959 40.8657615,2.03095004 38.3047642,3.5895653 C38.2343228,3.63224823 38.1645788,3.66391621 38.0948349,3.70728757 C37.9030391,3.82569827 37.7119407,3.9406668 37.5201449,4.06596184 C37.4573753,4.1072679 37.3939084,4.14788552 37.3304414,4.18988002 C36.9879987,4.41775177 36.6455559,4.65457317 36.3038106,4.90172109 C36.2096563,4.96987608 36.115502,5.03596577 36.0220451,5.10549764 C35.8511725,5.23148112 35.6802999,5.3615952 35.5094272,5.49239772 C35.408996,5.56950236 35.3085647,5.64798387 35.2088309,5.72646538 C35.0316813,5.86621755 34.8545317,6.00528127 34.6780795,6.14985248 C34.6494845,6.17325924 34.6215869,6.19735445 34.5929919,6.22076121 C34.1787129,6.56222463 33.764434,6.91745673 33.3508524,7.28783438 C33.3124933,7.3222561 33.2734367,7.35667781 33.2350775,7.39109953 C33.0223585,7.5831727 32.8103369,7.77868804 32.5976179,7.97764555 C32.5683255,8.00587136 32.5383356,8.03409717 32.5083457,8.06232297 C30.9084198,9.57343627 29.3182581,11.3000295 27.7455323,13.2345299 C27.7197271,13.2668863 27.6932244,13.2985543 27.6667217,13.3309107 C27.4553976,13.5925157 27.2440735,13.8575629 27.0327493,14.1260523 C27.0034569,14.1639162 26.9748619,14.2017801 26.944872,14.2389555 C26.5445418,14.7518391 26.1456065,15.2784913 25.748066,15.8175354 C25.7097069,15.8698564 25.6706503,15.9208006 25.6322911,15.9731216 C25.4663005,16.1996164 25.30031,16.4302419 25.1350168,16.6615559 C25.0283086,16.8109461 24.9216004,16.9603363 24.8148922,17.1117919 C24.6635478,17.325895 24.5115061,17.5413749 24.3608592,17.7596086 C24.2255559,17.9551239 24.0916476,18.153393 23.9570418,18.3516621 C23.9040364,18.4294552 23.851031,18.5072482 23.7980256,18.5850413 L23.8001179,18.5864182 L23.3265566,19.2755409 L23.3140027,19.2927518 C23.2393767,19.4015244 23.1661456,19.5096086 23.0908221,19.6170043 L22.7023484,20.180832 L22.6911894,20.164998 C17.2407008,27.6599823 9.99709569,32.2132868 3.44953504,32.2132868 C3.36863208,32.2132868 3.28842655,32.2979642 3.20822102,32.2965873 C3.18869272,32.2958989 3.16916442,32.3564811 3.14963612,32.3564811 L3.12383086,32.3564811 C3.09174865,32.3564811 3.06106132,32.289703 3.02897911,32.2883261 C2.78557278,32.2814418 2.54425876,32.2601003 2.30503706,32.2401357 C2.22762129,32.2339398 2.1516004,32.1967644 2.07488208,32.1891916 C1.87750674,32.169227 1.68082884,32.1334284 1.48624326,32.1052026 C1.39348383,32.0914339 1.30211927,32.0687156 1.21075472,32.0528816 C1.03290768,32.0232789 0.856455526,31.9874803 0.681398248,31.9503049 C0.584454178,31.9303403 0.488207547,31.9062451 0.391960916,31.8835268 C0.306873315,31.8635622 0.221088275,31.9399784 0.136698113,31.9186369 C5.05852763,33.9219807 13.1139522,34.317142 27.1317857,34.1932238" id="Fill-7" fill="#214A60" mask="url(#mask-8)"></path>
                        </g>
                    </g>
                </g>
                <g id="Group-23-Copy-2" transform="translate(310.000000, 103.000000)" fill="#214A60">
                    <g id="ic_landing--copy" transform="translate(0.000000, 0.194242)">
                        <path d="M20.5371018,12.5495982 C21.0181968,12.3199196 21.5340972,12.2031339 22.068864,12.2031339 L36.6158881,12.2031339 C38.4264186,12.2031339 40.1065103,12.3257589 41.610298,12.5677649 C42.0536601,12.6391339 42.4859624,12.7205595 42.9062293,12.8139881 C43.3287732,12.9067679 43.7412333,13.0121994 44.1393808,13.1289851 C44.3381293,13.1867292 44.5355767,13.2480417 44.7300965,13.3122738 C44.9246163,13.376506 45.1061248,13.4530655 45.2944642,13.5237857 C45.5888462,9.55891071 44.4783267,6.79336012 42.5598019,4.67694345 C39.7477221,1.57466071 34.7969002,0.187181548 28.4034439,0.187181548 L11.1240346,0.187181548 C9.81736888,0.187181548 8.70522301,1.13509226 8.50159525,2.42265476 L0.773824171,51.2929345 C0.621265993,52.2567411 1.36844325,53.1287411 2.34722269,53.1287411 L12.5256831,53.1287411 L18.5668569,15.188631 C18.7483653,14.0395893 19.4848082,13.0533988 20.5371018,12.5495982" id="Fill-11"></path>
                        <path d="M43.9607999,15.6269018 C43.7955557,15.5720774 43.626408,15.518875 43.4540075,15.4695655 C43.1049778,15.3670536 42.7461896,15.2762202 42.376667,15.1944702 C42.0009641,15.1114226 41.6168037,15.0381071 41.2215837,14.9748482 C39.8456325,14.7536042 38.296305,14.6416845 36.6158881,14.6416845 L23.1065199,14.6416845 C22.7493581,14.6416845 22.4087858,14.7224613 22.1036694,14.8684435 C21.4329339,15.1889554 20.9345988,15.8228423 20.8122921,16.5971964 L18.3729876,32.0654643 C18.6319137,32.0184256 18.9067786,31.9889048 19.2060399,31.9889048 L24.6509681,31.9889048 C27.5394897,31.9889048 30.1196421,31.6651488 32.3979309,31.0130952 C38.1635892,29.363497 42.0396729,25.6195417 43.982594,19.672878 C44.4126194,18.3557946 44.7281448,17.1383036 44.9496632,16.0009405 C44.6331619,15.8659881 44.3039745,15.7404435 43.9607999,15.6269018" id="Fill-12"></path>
                        <path d="M48.9630167,18.4411131 C48.4959089,17.9100625 47.9260114,17.4623839 47.3125259,17.0503899 C45.8064611,24.3151101 41.3142896,34.539375 24.4772665,34.539375 C24.4418105,34.539375 20.3032227,34.5254256 20.3032227,34.5254256 C18.996557,34.5254256 17.8935191,35.4736607 17.6898913,36.7605744 C17.6898913,36.7605744 14.4474608,57.1315714 14.2877464,58.2008095 C14.1608856,59.0478304 14.8970032,59.7362173 15.6685768,59.7362173 L24.0465905,59.7362173 C25.1896383,59.7362173 26.162888,58.9067143 26.3411436,57.7807054 L28.3722166,45.1509792 C28.5504722,44.0249702 29.5233966,43.1954673 30.6667697,43.1954673 L32.1110305,43.1954673 C41.4665225,43.1954673 48.7919173,39.4044732 50.9322858,28.4425119 C50.9960415,28.1171339 51.0513397,27.7891607 51.1024093,27.4595655 C51.5447955,23.786006 50.9495259,20.6983214 48.9630167,18.4411131" id="Fill-13"></path>
                    </g>
                </g>
                <g id="Group-22-Copy-2" transform="translate(543.000000, 104.000000)">
                    <g id="ic_landing_banco-copy" transform="translate(0.000000, 0.194242)">
                        <g id="Group-3" transform="translate(0.461105, 0.747309)">
                            <mask id="mask-10" fill="white">
                                <use xlink:href="#path-9"></use>
                            </mask>
                            <g id="Clip-2"></g>
                            <path d="M65.2972479,16.1311497 C62.4441193,14.5948497 45.9837625,6.03546417 37.6438484,1.64603568 C34.5712485,1.36168854e-13 30.94997,1.36168854e-13 27.87737,1.64603568 C19.6471916,6.03546417 3.18683481,14.5948497 0.3337063,16.1311497 C0.0044991642,16.3506211 -0.105236548,16.789564 0.114234876,17.1187711 C0.662913437,17.8869211 1.10185629,18.5453353 1.65053485,19.2037496 C1.87000627,19.423221 2.30894912,19.423221 2.52842054,19.423221 L5.38154906,19.423221 L20.9640202,19.423221 L32.7057414,19.423221 L44.4474626,19.423221 L60.2494051,19.423221 L63.1025336,19.423221 C63.4317408,19.423221 63.8706836,19.423221 63.9804193,19.2037496 C64.5290979,18.5453353 64.9680407,17.7771854 65.5167193,17.1187711 C65.7361907,16.789564 65.626455,16.2408854 65.2972479,16.1311497" id="Fill-1" fill="#214A60" mask="url(#mask-10)"></path>
                        </g>
                        <path d="M62.0272285,53.5301865 C61.3688142,53.5301865 60.9298713,52.981508 60.9298713,52.4328294 L60.9298713,51.7744151 C60.9298713,51.1160009 60.3811928,50.677058 59.8325142,50.677058 L59.0643642,50.677058 L46.9934359,50.677058 L19.888715,50.677058 L7.70805098,50.677058 L6.939901,50.677058 C6.28148672,50.677058 5.84254388,51.2257366 5.84254388,51.7744151 L5.84254388,52.4328294 C5.84254388,53.0912437 5.29386531,53.5301865 4.74518675,53.5301865 C4.08677248,53.5301865 3.64782963,54.0788651 3.64782963,54.6275437 L3.64782963,57.8098793 C3.64782963,58.4682936 4.19650819,58.9072364 4.74518675,58.9072364 L62.0272285,58.9072364 C62.6856427,58.9072364 63.1245856,58.3585579 63.1245856,57.8098793 L63.1245856,54.6275437 C63.1245856,54.0788651 62.6856427,53.5301865 62.0272285,53.5301865" id="Fill-4" fill="#214A60"></path>
                        <polygon id="Fill-6" fill="#214A60" points="10.4514438 48.7018152 16.7063794 48.7018152 16.7063794 22.2555086 10.4514438 22.2555086"></polygon>
                        <polygon id="Fill-8" fill="#214A60" points="30.0941362 48.7018152 36.3490718 48.7018152 36.3490718 22.2555086 30.0941362 22.2555086"></polygon>
                        <polygon id="Fill-9" fill="#214A60" points="49.8465644 48.7018152 56.1015 48.7018152 56.1015 22.2555086 49.8465644 22.2555086"></polygon>
                    </g>
                </g>
            </g>
        </g>
    </g>
</svg>